<?xml version="1.0" encoding="utf-8"?>
<!-- Generator: Adobe Illustrator 19.2.1, SVG Export Plug-In . SVG Version: 6.00 Build 0)  -->
<svg version="1.1" id="Layer_1" xmlns="http://www.w3.org/2000/svg" xmlns:xlink="http://www.w3.org/1999/xlink" x="0px" y="0px"
	 viewBox="0 0 80 80" style="enable-background:new 0 0 80 80;" xml:space="preserve">
<style type="text/css">
	.st0{fill:none;stroke:#FFFFFF;stroke-width:2;stroke-miterlimit:10;}
	.st1{fill:#FFFFFF;}
</style>
<g id="Layer_2">
</g>
<circle class="st0" cx="40" cy="40" r="38.9"/>
<path class="st1" d="M44,33.1v21.2c0,1.9,0.2,3.1,0.7,3.6c0.4,0.5,1.3,0.8,2.6,0.9v1H32.8v-1c1.2,0,2.1-0.4,2.6-1
	c0.4-0.4,0.6-1.6,0.6-3.5V38.7c0-1.9-0.2-3.1-0.7-3.6c-0.4-0.5-1.3-0.8-2.6-0.9v-1.1L44,33.1L44,33.1z M40,20.1
	c1.2,0,2.3,0.4,3.2,1.3s1.3,1.9,1.3,3.1s-0.4,2.3-1.3,3.1c-0.9,0.9-2,1.4-3.2,1.4s-2.3-0.4-3.1-1.3c-0.9-0.9-1.3-1.9-1.3-3.1
	s0.4-2.3,1.3-3.1C37.7,20.6,38.8,20.1,40,20.1z"/>
</svg>
