<?xml version="1.0" encoding="utf-8"?>
<!-- Generator: Adobe Illustrator 19.2.1, SVG Export Plug-In . SVG Version: 6.00 Build 0)  -->
<svg version="1.1" id="Capa_1" xmlns="http://www.w3.org/2000/svg" xmlns:xlink="http://www.w3.org/1999/xlink" x="0px" y="0px"
	 viewBox="0 0 80 80" style="enable-background:new 0 0 80 80;" xml:space="preserve">
<style type="text/css">
	.st0{fill:none;stroke:#FFFFFF;stroke-width:2;stroke-miterlimit:10;}
	.st1{enable-background:new    ;}
	.st2{fill:#FFFFFF;}
</style>
<circle class="st0" cx="40" cy="40" r="38.9"/>
<g class="st1">
	<path class="st2" d="M39.2,46.7H38c0-2.1,0.1-3.6,0.3-4.7c0.2-1,0.8-2.5,1.8-4.3c1-1.8,1.6-3.3,1.9-4.4c0.3-1.1,0.5-2.5,0.5-4.1
		c0-2.5-0.5-4.3-1.5-5.5c-1-1.2-2.1-1.8-3.5-1.8c-1,0-1.9,0.3-2.6,0.8c-0.5,0.4-0.8,0.8-0.8,1.3c0,0.3,0.2,0.8,0.5,1.4
		c0.8,1.4,1.2,2.7,1.2,3.7c0,0.9-0.3,1.7-0.9,2.3c-0.6,0.6-1.4,0.9-2.3,0.9c-1,0-1.9-0.4-2.6-1.1S29,29.7,29,28.5
		c0-2.2,1-4.1,2.9-5.8c1.9-1.7,4.6-2.5,8-2.5c3.6,0,6.4,0.9,8.3,2.6c1.9,1.7,2.8,3.8,2.8,6.3c0,1.8-0.5,3.4-1.5,4.9
		c-1,1.5-2.8,3.2-5.7,5c-1.9,1.2-3.1,2.3-3.7,3.3C39.7,43.2,39.3,44.7,39.2,46.7z M38.8,50.8c1.3,0,2.3,0.5,3.2,1.3
		c0.9,0.9,1.3,1.9,1.3,3.2s-0.5,2.3-1.3,3.2c-0.9,0.9-1.9,1.3-3.2,1.3c-1.3,0-2.3-0.5-3.2-1.3c-0.9-0.9-1.3-2-1.3-3.2
		c0-1.3,0.5-2.3,1.3-3.2C36.5,51.2,37.6,50.8,38.8,50.8z"/>
</g>
</svg>
