<?xml version="1.0" encoding="utf-8"?>
<!-- Generator: Adobe Illustrator 19.2.1, SVG Export Plug-In . SVG Version: 6.00 Build 0)  -->
<svg version="1.1" id="Capa_1" xmlns="http://www.w3.org/2000/svg" xmlns:xlink="http://www.w3.org/1999/xlink" x="0px" y="0px"
	 viewBox="0 0 80 80" style="enable-background:new 0 0 80 80;" xml:space="preserve">
<style type="text/css">
	.st0{fill:none;stroke:#FFFFFF;stroke-width:2;stroke-linecap:round;stroke-linejoin:round;stroke-miterlimit:10;}
	.st1{fill:#FFFFFF;stroke:#FFFFFF;stroke-width:2;stroke-linecap:round;stroke-linejoin:round;stroke-miterlimit:10;}
</style>
<circle class="st0" cx="46.4" cy="45.6" r="16.6"/>
<path class="st0" d="M75,20.1h-9.7c-0.9-2.2-2.3-5.6-3.8-8.4c-1.7-3.2-5-3.1-5-3.1s-16.2,0-21.6,0c-5.3,0-6.6,4.2-6.6,4.2l-2.5,7.3
	H5.9c-2.3,0-4.3,1.9-4.3,4.3v42.9c0,2.3,1.9,4.3,4.3,4.3H75c2.3,0,4.3-1.9,4.3-4.3V24.4C79.2,22,77.3,20.1,75,20.1z"/>
<rect x="9.9" y="29.4" class="st1" width="9.2" height="33.2"/>
</svg>
