<?xml version="1.0" encoding="utf-8"?>
<!-- Generator: Adobe Illustrator 19.2.1, SVG Export Plug-In . SVG Version: 6.00 Build 0)  -->
<svg version="1.1" id="Capa_1" xmlns="http://www.w3.org/2000/svg" xmlns:xlink="http://www.w3.org/1999/xlink" x="0px" y="0px"
	 viewBox="0 0 80 80" style="enable-background:new 0 0 80 80;" xml:space="preserve">
<style type="text/css">
	.st0{fill:none;stroke:#FFFFFF;stroke-width:2;stroke-miterlimit:10;}
	.st1{fill:#FFFFFF;}
</style>
<path class="st0" d="M60.1,51.7L29.5,24.8c1.7-5.1,0.3-11-4.1-14.8c-4.5-4-9.6-5.4-14.9-2.9l-1,1.2l11.2,9.8l-0.5,5.9l-5.8,1.3
	L3.2,15.5L1.9,17C0.3,22.1,2.5,27,7,31c4.3,3.8,10.3,4.4,15.2,2.1l30.7,26.9c-1.4,4.7,0,10.1,3.9,13.6c5.4,4.8,13.7,4.2,18.5-1.2
	c4.8-5.4,4.2-13.7-1.2-18.5C70.1,50.3,64.7,49.6,60.1,51.7z"/>
<polygon class="st0" points="61.4,60 67,58.1 71.5,62 70.3,67.9 64.7,69.8 60.2,65.9 "/>
<polygon class="st1" points="66.3,18.4 71.5,7.1 68.1,4.2 57.9,11.1 57.6,14.9 37.5,38.5 42.4,42.8 62.7,19.2 "/>
<path class="st1" d="M35.3,39.4l6.6,5.7l0,1.7l-6.9,8l-0.5,5.4L19.2,78c0,0-10.5-2.7-13-11.1l15.3-17.8l5-1.5l7.1-8.2L35.3,39.4z"/>
</svg>
