<?xml version="1.0" encoding="utf-8"?>
<!-- Generator: Adobe Illustrator 20.1.0, SVG Export Plug-In . SVG Version: 6.00 Build 0)  -->
<svg version="1.1" id="Layer_1" xmlns="http://www.w3.org/2000/svg" xmlns:xlink="http://www.w3.org/1999/xlink" x="0px" y="0px"
	 viewBox="0 0 80 80" style="enable-background:new 0 0 80 80;" xml:space="preserve">
<style type="text/css">
	.st0{fill:#34B4CF;}
	.st1{fill:none;stroke:#34B4CF;stroke-width:2;stroke-miterlimit:10;}
	.st2{fill:#FFFFFF;}
</style>
<g id="Layer_2">
</g>
<g id="Layer_2_1_">
</g>
<g>
	<g>
		<path class="st0" d="M57.7,62.5H23.4c-2.9,0-5.3-2.4-5.3-5.3V22.8c0-2.9,2.4-5.3,5.3-5.3h34.3c2.9,0,5.3,2.4,5.3,5.3v34.3
			C63,60.1,60.6,62.5,57.7,62.5z"/>
		<path class="st1" d="M67.5,71.5H13.6c-2.5,0-4.5-2-4.5-4.5V13c0-2.5,2-4.5,4.5-4.5h53.9c2.5,0,4.5,2,4.5,4.5V67
			C72,69.4,70,71.5,67.5,71.5z"/>
		<line class="st1" x1="15.2" y1="8.5" x2="15.2" y2="2.6"/>
		<line class="st1" x1="22" y1="8.5" x2="22" y2="2.6"/>
		<line class="st1" x1="28.8" y1="8.5" x2="28.8" y2="2.6"/>
		<line class="st1" x1="35.6" y1="8.5" x2="35.6" y2="2.6"/>
		<line class="st1" x1="42.3" y1="8.5" x2="42.3" y2="2.6"/>
		<line class="st1" x1="49.1" y1="8.5" x2="49.1" y2="2.6"/>
		<line class="st1" x1="55.9" y1="8.5" x2="55.9" y2="2.6"/>
		<line class="st1" x1="62.6" y1="8.5" x2="62.6" y2="2.6"/>
		<line class="st1" x1="15.2" y1="77.4" x2="15.2" y2="71.5"/>
		<line class="st1" x1="22" y1="77.4" x2="22" y2="71.5"/>
		<line class="st1" x1="28.8" y1="77.4" x2="28.8" y2="71.5"/>
		<line class="st1" x1="35.6" y1="77.4" x2="35.6" y2="71.5"/>
		<line class="st1" x1="42.3" y1="77.4" x2="42.3" y2="71.5"/>
		<line class="st1" x1="49.1" y1="77.4" x2="49.1" y2="71.5"/>
		<line class="st1" x1="55.9" y1="77.4" x2="55.9" y2="71.5"/>
		<line class="st1" x1="62.6" y1="77.4" x2="62.6" y2="71.5"/>
		<line class="st1" x1="2.1" y1="16.3" x2="8" y2="16.3"/>
		<line class="st1" x1="2.1" y1="23.1" x2="8" y2="23.1"/>
		<line class="st1" x1="2.1" y1="29.9" x2="8" y2="29.9"/>
		<line class="st1" x1="2.1" y1="36.6" x2="8" y2="36.6"/>
		<line class="st1" x1="2.1" y1="43.4" x2="8" y2="43.4"/>
		<line class="st1" x1="2.1" y1="50.2" x2="8" y2="50.2"/>
		<line class="st1" x1="2.1" y1="57" x2="8" y2="57"/>
		<line class="st1" x1="2.1" y1="63.7" x2="8" y2="63.7"/>
		<line class="st1" x1="72" y1="16.3" x2="77.9" y2="16.3"/>
		<line class="st1" x1="72" y1="23.1" x2="77.9" y2="23.1"/>
		<line class="st1" x1="72" y1="29.9" x2="77.9" y2="29.9"/>
		<line class="st1" x1="72" y1="36.6" x2="77.9" y2="36.6"/>
		<line class="st1" x1="72" y1="43.4" x2="77.9" y2="43.4"/>
		<line class="st1" x1="72" y1="50.2" x2="77.9" y2="50.2"/>
		<line class="st1" x1="72" y1="57" x2="77.9" y2="57"/>
		<line class="st1" x1="72" y1="63.7" x2="77.9" y2="63.7"/>
	</g>
	<g>
		<g>
			<path class="st2" d="M34.6,59h-2.3l-0.7-1.7h-3.9L27,59h-2.3l3.5-8.7h2.5L34.6,59z M29.5,52.4l-1.3,3.4h2.7L29.5,52.4z"/>
			<path class="st2" d="M43.1,50.4H45V59h-2.2v-5.4l-2.3,2.7h-0.3l-2.3-2.7V59h-2.2v-8.7h1.9l2.8,3.2L43.1,50.4z"/>
			<path class="st2" d="M50.5,50.4c3.2,0,4.8,2,4.8,4.4c0,2.5-1.6,4.3-5,4.3h-3.6v-8.7H50.5z M48.8,57.5h1.4c2.2,0,2.8-1.5,2.8-2.8
				c0-1.5-0.8-2.8-2.9-2.8h-1.4L48.8,57.5L48.8,57.5z"/>
		</g>
		<g>
			<polygon class="st2" points="46,28.3 34,28.3 26.7,21 53.3,21 53.3,47.6 46,40.3 			"/>
			<polygon class="st2" points="34,40.3 34,29.7 26.5,37.3 26.5,47.8 37,47.8 44.5,40.3 			"/>
		</g>
	</g>
</g>
</svg>
