<?xml version="1.0" encoding="utf-8"?>
<!-- Generator: Adobe Illustrator 19.2.1, SVG Export Plug-In . SVG Version: 6.00 Build 0)  -->
<svg version="1.1" id="Layer_3" xmlns="http://www.w3.org/2000/svg" xmlns:xlink="http://www.w3.org/1999/xlink" x="0px" y="0px"
	 viewBox="0 0 80 80" style="enable-background:new 0 0 80 80;" xml:space="preserve">
<style type="text/css">
	.st0{fill:#FFFFFF;}
</style>
<path class="st0" d="M26.6,61.1L22,57.1c-0.3-0.3-0.3-0.7-0.1-0.9l30.7-35.8c0.3-0.3,0.7-0.3,0.9-0.1l4.6,3.9
	c0.3,0.3,0.3,0.7,0.1,0.9L27.6,61C27.3,61.3,26.9,61.3,26.6,61.1z"/>
<path class="st0" d="M74.3,28.7c3.2-5.7,1.5-12.5,1.5-12.5C75.2,10.1,70,6,69.3,5.4c-0.7-0.6-5.6-5.1-11.7-4.8c0,0-7-0.7-12.1,3.4
	L35.2,14.8c0,0-3.9,5.7-4.1,9.3l0.3,6.3c0,0,0.3,2.9,3.2,2.7c0,0,3.7,0.3,3.5-3.1l-0.2-2.7c0,0-0.1-2.8,1.2-4.9s10.1-11.8,10.1-11.8
	s2.3-2.6,7.7-3.3c0,0,4.9,0.2,7.7,3.3l0.2,0.2c3.3,2.5,4.4,7.1,4.4,7.1c0.1,5.4-2.1,8.1-2.1,8.1s-8.3,10.2-10.1,11.8
	s-4.6,1.9-4.6,1.9L49.6,40c-3.4,0.3-2.5,3.9-2.5,3.9c0.2,2.8,3.2,2.7,3.2,2.7l6.2-0.7c3.5-0.9,8.6-5.5,8.6-5.5L74.3,28.7z"/>
<path class="st0" d="M34.5,76.1c-5.1,4.1-12.1,3.3-12.1,3.3c-6,0.3-11-4.1-11.7-4.8c-0.7-0.5-5.9-4.8-6.5-10.8c0,0-1.8-6.9,1.5-12.5
	l9.2-11.8c0,0,5.1-4.7,8.6-5.5l6.2-0.7c0,0,2.9-0.2,3.2,2.7c0,0,0.9,3.6-2.5,3.9l-2.7,0.2c0,0-2.8,0.4-4.6,1.9
	c-1.8,1.6-10.1,11.8-10.1,11.8s-2.2,2.7-2.1,8.1c0,0,0.9,4.8,4.4,7.1l0.2,0.2c3,2.9,7.6,3.2,7.6,3.2c5.3-0.7,7.7-3.3,7.7-3.3
	s8.8-9.7,10.1-11.8s1.2-4.9,1.2-4.9l-0.2-2.7c-0.2-3.4,3.5-3.1,3.5-3.1c2.8-0.2,3.2,2.7,3.2,2.7l0.3,6.3c-0.3,3.6-4.1,9.3-4.1,9.3
	L34.5,76.1z"/>
</svg>
