<?xml version="1.0" encoding="utf-8"?>
<!-- Generator: Adobe Illustrator 19.2.1, SVG Export Plug-In . SVG Version: 6.00 Build 0)  -->
<svg version="1.1" id="Layer_3" xmlns="http://www.w3.org/2000/svg" xmlns:xlink="http://www.w3.org/1999/xlink" x="0px" y="0px"
	 viewBox="0 0 80 80" style="enable-background:new 0 0 80 80;" xml:space="preserve">
<style type="text/css">
	.st0{fill:#FFFFFF;}
</style>
<g>
	<path class="st0" d="M17.4,21.8h45.2v-3.5c0,0,0.1-0.9-1.8-0.8h-7.2V4.3c0-1.9-1.6-3.5-3.5-3.5s-3.5,1.6-3.5,3.5v13.1h-6h-1h-6V4.3
		c0-1.9-1.6-3.5-3.5-3.5s-3.5,1.6-3.5,3.5v13.1h-7.2c-1.9,0-1.8,0.8-1.8,0.8v3.6H17.4z"/>
	<path class="st0" d="M17.4,25.9v5.3c0.2,6.3,2.8,11.3,2.8,11.3c3.7,7.3,10.9,10.4,10.9,10.4c1.6,0.7,3,1,4.3,1.2v21.7
		c0,1.9,1.6,3.5,3.5,3.5H42c1.9,0,3.5-1.6,3.5-3.5v-22c1-0.2,2.1-0.5,3.3-1c0,0,7.2-3.1,10.9-10.4c0,0,2.7-5.1,2.8-11.3v-5.3
		L17.4,25.9L17.4,25.9z"/>
</g>
</svg>
