<?xml version="1.0" encoding="utf-8"?>
<!-- Generator: Adobe Illustrator 19.2.1, SVG Export Plug-In . SVG Version: 6.00 Build 0)  -->
<svg version="1.1" id="Capa_1" xmlns="http://www.w3.org/2000/svg" xmlns:xlink="http://www.w3.org/1999/xlink" x="0px" y="0px"
	 viewBox="0 0 80 80" style="enable-background:new 0 0 80 80;" xml:space="preserve">
<style type="text/css">
	.st0{fill:none;stroke:#34B4CF;stroke-width:2;stroke-miterlimit:10;}
	.st1{fill:#34B4CF;}
</style>
<path class="st0" d="M60.4,66.6H20c-3.4,0-6.3-2.8-6.3-6.2V20c0-3.4,2.8-6.3,6.3-6.3h40.4c3.4,0,6.3,2.8,6.3,6.3v40.4
	C66.6,63.8,63.8,66.6,60.4,66.6z"/>
<path class="st1" d="M48.4,51.8H32c-1.9,0-3.4-1.5-3.4-3.4V32c0-1.9,1.5-3.4,3.4-3.4h16.4c1.9,0,3.4,1.5,3.4,3.4v16.4
	C51.8,50.3,50.3,51.8,48.4,51.8z"/>
<g>
	<rect x="23.9" y="1.5" class="st1" width="2.3" height="12.3"/>
	<rect x="33.9" y="1.5" class="st1" width="2.3" height="12.3"/>
	<rect x="43.9" y="1.5" class="st1" width="2.3" height="12.3"/>
	<rect x="53.9" y="1.5" class="st1" width="2.3" height="12.3"/>
</g>
<g>
	<rect x="23.9" y="66.8" class="st1" width="2.3" height="12.3"/>
	<rect x="33.9" y="66.8" class="st1" width="2.3" height="12.3"/>
	<rect x="43.9" y="66.8" class="st1" width="2.3" height="12.3"/>
	<rect x="53.9" y="66.8" class="st1" width="2.3" height="12.3"/>
</g>
<g>
	
		<rect x="6.2" y="49.1" transform="matrix(4.446405e-011 -1 1 4.446405e-011 -47.875 62.615)" class="st1" width="2.3" height="12.3"/>
	
		<rect x="6.2" y="39.1" transform="matrix(4.527229e-011 -1 1 4.527229e-011 -37.875 52.615)" class="st1" width="2.3" height="12.3"/>
	
		<rect x="6.2" y="29.1" transform="matrix(4.527229e-011 -1 1 4.527229e-011 -27.875 42.615)" class="st1" width="2.3" height="12.3"/>
	
		<rect x="6.2" y="19.1" transform="matrix(4.446405e-011 -1 1 4.446405e-011 -17.875 32.615)" class="st1" width="2.3" height="12.3"/>
</g>
<g>
	
		<rect x="71.5" y="49.1" transform="matrix(4.527229e-011 -1 1 4.527229e-011 17.385 127.875)" class="st1" width="2.3" height="12.3"/>
	
		<rect x="71.5" y="39.1" transform="matrix(4.527229e-011 -1 1 4.527229e-011 27.385 117.875)" class="st1" width="2.3" height="12.3"/>
	
		<rect x="71.5" y="29.1" transform="matrix(4.365581e-011 -1 1 4.365581e-011 37.385 107.875)" class="st1" width="2.3" height="12.3"/>
	
		<rect x="71.5" y="19.1" transform="matrix(4.527229e-011 -1 1 4.527229e-011 47.385 97.875)" class="st1" width="2.3" height="12.3"/>
</g>
</svg>
