<?xml version="1.0" encoding="utf-8"?>
<!-- Generator: Adobe Illustrator 19.2.1, SVG Export Plug-In . SVG Version: 6.00 Build 0)  -->
<svg version="1.1" id="Capa_1" xmlns="http://www.w3.org/2000/svg" xmlns:xlink="http://www.w3.org/1999/xlink" x="0px" y="0px"
	 viewBox="0 0 80 80" style="enable-background:new 0 0 80 80;" xml:space="preserve">
<style type="text/css">
	.st0{fill:none;stroke:#33B4CE;stroke-width:2;stroke-linecap:round;stroke-linejoin:round;stroke-miterlimit:10;}
</style>
<polygon class="st0" points="55.9,13.7 40,1 24.1,13.7 8.1,27.3 8.1,79.1 71.9,79.1 71.9,27.3 "/>
<path class="st0" d="M58.8,71.1H21.2c-2.3,0-4.2-1.9-4.2-4.2V33.1c0-2.3,1.9-4.2,4.2-4.2h37.6c2.3,0,4.2,1.9,4.2,4.2v33.8
	C63,69.2,61.1,71.1,58.8,71.1z"/>
<line class="st0" x1="17" y1="42.3" x2="63" y2="42.3"/>
<line class="st0" x1="17" y1="58.3" x2="63" y2="58.3"/>
<line class="st0" x1="23.6" y1="36.3" x2="45.1" y2="36.3"/>
<line class="st0" x1="23.6" y1="50.3" x2="45.1" y2="50.3"/>
<line class="st0" x1="23.6" y1="65.3" x2="45.1" y2="65.3"/>
<circle class="st0" cx="54" cy="36.3" r="2.1"/>
<circle class="st0" cx="54" cy="50.3" r="2.1"/>
<circle class="st0" cx="54" cy="65.3" r="2.1"/>
</svg>
