<?xml version="1.0" encoding="utf-8"?>
<!-- Generator: Adobe Illustrator 19.2.1, SVG Export Plug-In . SVG Version: 6.00 Build 0)  -->
<svg version="1.1" id="Layer_3" xmlns="http://www.w3.org/2000/svg" xmlns:xlink="http://www.w3.org/1999/xlink" x="0px" y="0px"
	 viewBox="0 0 80 80" style="enable-background:new 0 0 80 80;" xml:space="preserve">
<style type="text/css">
	.st0{fill:#FFFFFF;}
</style>
<path class="st0" d="M69.9,4.5H49.7c-0.2-2.3-2.1-4.1-4.4-4.1H34.7c-2.3,0-4.2,1.8-4.4,4.1H10.1c-2,0-3.7,1.7-3.7,3.7
	S8.1,12,10.1,12h59.8c2,0,3.7-1.7,3.7-3.7S71.9,4.5,69.9,4.5z"/>
<polygon class="st0" points="60.1,13.8 53.5,71.2 50,71.2 56.5,13.8 41.7,13.8 41.7,71.2 38.3,71.2 38.3,13.8 24.2,13.8 30.8,71.2 
	27.2,71.2 20.6,13.8 10,13.8 18.3,79.5 61.7,79.5 70,13.8 "/>
</svg>
