<?xml version="1.0" encoding="utf-8"?>
<!-- Generator: Adobe Illustrator 19.2.1, SVG Export Plug-In . SVG Version: 6.00 Build 0)  -->
<svg version="1.1" id="Layer_4" xmlns="http://www.w3.org/2000/svg" xmlns:xlink="http://www.w3.org/1999/xlink" x="0px" y="0px"
	 viewBox="0 0 80 80" style="enable-background:new 0 0 80 80;" xml:space="preserve">
<style type="text/css">
	.st0{fill:none;stroke:#FFFFFF;stroke-width:3;stroke-linecap:round;stroke-linejoin:round;stroke-miterlimit:10;}
	.st1{fill:none;stroke:#FF3145;stroke-width:3;stroke-miterlimit:10;}
</style>
<line class="st0" x1="24.4" y1="59.2" x2="55.7" y2="22.2"/>
<path class="st0" d="M35.3,33.3c0,0-1.2-4.7-1.1-7c0-5.4,10.1-15.9,10.1-15.9s4.8-5.7,8.6-6.3c4-0.6,4.9-0.8,8.9,0.9
	s6.6,4.5,8.2,6.6s3.1,6.4,2.4,10.7s-6.5,11.8-8,13.5c-1.5,1.6-3.6,5.4-10.2,7.4c-1.9,0.4-5.7,0.8-5.7,0.8"/>
<path class="st0" d="M45,47.2c0,0,0.7,4.7,0.7,7c0,5.4-10.1,15.9-10.1,15.9s-4.8,5.7-8.6,6.3c-4,0.6-4.9,0.8-8.9-0.9
	s-6.6-4.5-8.2-6.6s-3.1-6.4-2.4-10.7s6.5-11.8,8-13.5s3.6-5.4,10.2-7.4c1.9-0.4,6.3-0.9,6.3-0.9"/>
<line class="st1" x1="4" y1="5" x2="73.5" y2="74.7"/>
</svg>
