<?xml version="1.0" encoding="utf-8"?>
<!-- Generator: Adobe Illustrator 19.2.0, SVG Export Plug-In . SVG Version: 6.00 Build 0)  -->
<svg version="1.1" id="Layer_1" xmlns="http://www.w3.org/2000/svg" xmlns:xlink="http://www.w3.org/1999/xlink" x="0px" y="0px"
	 viewBox="0 0 250 250" style="enable-background:new 0 0 250 250;" xml:space="preserve">
<style type="text/css">
	.st0{display:none;}
	.st1{display:inline;}
	.st2{fill:none;stroke:#020202;stroke-width:1.5;stroke-miterlimit:10;}
	.st3{fill:none;stroke:#020202;stroke-width:2;stroke-miterlimit:10;}
	.st4{fill:none;stroke:#020202;stroke-miterlimit:10;}
	.st5{fill:none;stroke:#020202;stroke-width:3;stroke-miterlimit:10;}
	.st6{display:inline;fill:none;stroke:#020202;stroke-width:2;stroke-miterlimit:10;}
	.st7{fill:none;stroke:#000000;stroke-width:2;stroke-miterlimit:10;}
	.st8{fill:none;stroke:#000000;stroke-width:4;stroke-miterlimit:10;}
	.st9{font-family:'TimesNewRomanPS-BoldMT';}
	.st10{font-size:42px;}
	.st11{fill:none;stroke:#000000;stroke-width:3;stroke-miterlimit:10;}
	.st12{display:inline;fill:none;stroke:#000000;stroke-width:3;stroke-miterlimit:10;}
	.st13{fill:none;stroke:#000000;stroke-width:3;stroke-linecap:round;stroke-miterlimit:10;}
	.st14{fill:none;stroke:#34B4CF;stroke-width:3;stroke-miterlimit:10;}
	.st15{fill:#34B4CF;}
	.st16{fill:#FFFFFF;}
	.st17{font-family:'Calibri';}
	.st18{font-size:28px;}
	.st19{fill:none;stroke:#34B4CF;stroke-width:2;stroke-miterlimit:10;}
	.st20{display:inline;fill:#34B4CF;}
	.st21{clip-path:url(#SVGID_2_);}
	.st22{fill:#DC1A28;}
	.st23{fill:#F8D834;}
	.st24{clip-path:url(#SVGID_4_);}
	.st25{fill:#EC1C24;}
	.st26{fill:#262261;}
	.st27{display:inline;fill:none;stroke:#B3B3B3;stroke-width:3;stroke-miterlimit:10;}
	.st28{display:inline;fill:#B3B3B3;}
	.st29{display:inline;fill:none;}
	.st30{fill:#FF3145;}
	.st31{fill:none;}
</style>
<g id="Layer_1_1_" class="st0">
	<g class="st1">
		<path class="st2" d="M144.7,157.3c0,1.8-1.5,3.3-3.3,3.3H107c-1.8,0-3.3-1.5-3.3-3.3v-34.4c0-1.8,1.5-3.3,3.3-3.3h34.4
			c1.8,0,3.3,1.5,3.3,3.3V157.3L144.7,157.3z"/>
		<line class="st3" x1="104" y1="133.8" x2="144" y2="133.8"/>
		<line class="st3" x1="104" y1="148.8" x2="144" y2="148.8"/>
		<circle class="st4" cx="136.7" cy="126.8" r="1.8"/>
		<circle class="st4" cx="136.7" cy="140.7" r="1.8"/>
		<circle class="st4" cx="136.6" cy="154.1" r="1.8"/>
		<line class="st5" x1="109" y1="126.3" x2="125" y2="126.3"/>
		<line class="st5" x1="109" y1="140.3" x2="125" y2="140.3"/>
		<line class="st5" x1="109" y1="153.3" x2="125" y2="153.3"/>
	</g>
	<polyline class="st6" points="158,163.8 158,129.8 170.3,129.8 125.3,95.8 79.6,129.8 91,129.8 91,163.8 	"/>
</g>
<g id="Layer_2" class="st0">
	<g class="st1">
		<path class="st7" d="M150.5,149.3c0,2.2-1.8,4-4,4h-41.9c-2.2,0-4-1.8-4-4v-41.9c0-2.2,1.8-4,4-4h41.9c2.2,0,4,1.8,4,4
			L150.5,149.3L150.5,149.3z"/>
		<line class="st7" x1="100" y1="119.8" x2="150" y2="119.8"/>
		<line class="st7" x1="100" y1="137.8" x2="150" y2="137.8"/>
		<circle class="st7" cx="140.8" cy="112.1" r="2.3"/>
		<circle class="st7" cx="140.8" cy="129.1" r="2.3"/>
		<circle class="st7" cx="140.8" cy="146.1" r="2.3"/>
		<line class="st8" x1="107" y1="111.8" x2="126" y2="111.8"/>
		<line class="st8" x1="107" y1="128.8" x2="126" y2="128.8"/>
		<line class="st8" x1="107" y1="145.8" x2="126" y2="145.8"/>
	</g>
</g>
<g id="Layer_3" class="st0">
	<g class="st1">
		<path class="st7" d="M133.7,143.8H148v-13h-5.7C142.3,130.8,139.7,138.8,133.7,143.8z"/>
		<path d="M128.8,125.1l11.6,16.3c0,0,1.9,2.2,4.3,0c3.4-3.1-1.1-5.6-1.1-5.6L128.8,125.1z"/>
		<path class="st7" d="M154,145.5c0,2.2-1.8,4.3-4.4,4.3h-48.5c-2.6,0-4.2-2.1-4.2-4.3v-35.3c0-2.2,1.6-3.4,4.2-3.4h48.5
			c2.6,0,4.4,1.1,4.4,3.4V145.5z"/>
		<path class="st7" d="M121.3,111.5c-8.9,0-16.1,7.2-16.1,16.1s7.2,16.1,16.1,16.1s16.1-7.2,16.1-16.1S130.2,111.5,121.3,111.5z
			 M121.2,131.7c-2.4,0-4.3-1.9-4.3-4.3c0-2.4,1.9-4.3,4.3-4.3s4.3,1.9,4.3,4.3C125.4,129.7,123.5,131.7,121.2,131.7z"/>
	</g>
</g>
<g id="Layer_4" class="st0">
	<g class="st1">
		<path d="M124,122.8c0,0,0.4-3,3.1-3h9.8c0,0,2.8,0,2.8,3H124z"/>
		<circle class="st7" cx="131.8" cy="139.6" r="12.1"/>
		<path d="M131.8,130.3c-5.1,0-9.3,4.2-9.3,9.3s4.2,9.3,9.3,9.3s9.3-4.2,9.3-9.3S136.9,130.3,131.8,130.3z"/>
		<g>
			<path class="st7" d="M109,149.8v2.8c0,1.7,1.2,3.2,3.4,3.2h39.8c2.2,0,2.8-1.4,2.8-3.2v-27.2c0-1.7-0.7-2.6-2.8-2.6H146"/>
			<path class="st7" d="M112.4,122.8H146v-17v-3.4c0-1.7-1.2-1.6-2.9-1.6H98.8c-1.7,0-2.8-0.1-2.8,1.6v3.4v40.9
				c0,1.7,1.1,3.1,2.8,3.1H109v-24.4C109,123.7,110.2,122.8,112.4,122.8z"/>
		</g>
		<path d="M143.1,100.8H99.6c-2,0-3.6,0.3-3.6,2.8v3.2h50v-3.2C146,101.1,145.1,100.8,143.1,100.8z M136.6,105.4
			c-0.9,0-1.7-0.8-1.7-1.7c0-0.9,0.8-1.7,1.7-1.7s1.7,0.8,1.7,1.7S137.5,105.4,136.6,105.4z M141.6,105.4c-0.9,0-1.7-0.8-1.7-1.7
			c0-0.9,0.8-1.7,1.7-1.7s1.7,0.8,1.7,1.7S142.5,105.4,141.6,105.4z"/>
	</g>
</g>
<g id="Layer_5" class="st0">
	<g class="st1">
		<path class="st7" d="M140.3,117.5h-3.5l-1.4-3.7c0,0-0.8-1.1-2.4-1.1s-12.5,0-12.5,0s-1.1,0-1.8,1.8l-1.1,3h-7.5c-2.2,0-4,1.8-4,4
			v19c0,2.2,1.8,4,4,4h30c2.2,0,4-1.8,4-4v-19C144.3,119.3,142.5,117.5,140.3,117.5z"/>
		<rect x="109.8" y="121.5" width="4.8" height="19.7"/>
		<circle class="st7" cx="128.6" cy="131.3" r="9.2"/>
	</g>
</g>
<g id="Layer_6" class="st0">
	<g class="st1">
		<path class="st7" d="M142.1,134.2c-0.9,0-1.7,0.1-2.5,0.3l-17.9-18c0,0,2.3-4.8-1.6-10c0,0-1.3-2.6-6.2-4.6c0,0-3.7-1.2-7.2-0.1
			c-1.1,1.1-1.1,1.1-1.1,1.1l9,8.1l0.1,4.6c0,0-1,0.9-1.8,1.3l-5.2-0.1l-8.3-8.8l-0.9,1c0,0-1.2,7.8,3.1,11.9c0,0,4.9,5.6,12.8,3
			l17.7,17.7c-0.3,1-0.5,2-0.5,3.1c0,5.8,4.7,10.4,10.4,10.4c5.8,0,10.4-4.7,10.4-10.4C152.5,138.8,147.8,134.2,142.1,134.2z
			 M143.8,150l-5.8-1.4l-1.7-5.7l4.1-4.3l5.8,1.4l1.7,5.7L143.8,150z"/>
		<polygon points="123.5,125.6 138,111.3 138,107.3 148.6,101.5 151.5,104.2 145.5,114.8 141.4,115.1 127.1,129.6 		"/>
		<path d="M122.9,125.9l-1.5-0.1l-4.1,4h-3.1L97.8,145c0,0-0.7,1-0.5,2.2c0,0,1.7,6.3,7.5,7.6c0,0,1.3,0.2,2.4-0.1l16.5-16.9
			l-0.1-3.1l3.4-3.3v-1.1C127,130.3,126.2,129.5,122.9,125.9z"/>
	</g>
</g>
<g id="Layer_7" class="st0">
	<g class="st1">
		<text transform="matrix(1 0 0 1 118.8524 141.8167)" class="st9 st10">i</text>
		<circle class="st11" cx="124.7" cy="127.3" r="24.2"/>
	</g>
</g>
<g id="Layer_8" class="st0">
	<text transform="matrix(1 0 0 1 114.575 143.8167)" class="st1 st9 st10">?</text>
	<circle class="st12" cx="124.9" cy="129.3" r="24.2"/>
</g>
<g id="Layer_9" class="st0">
	<g class="st1">
		<path class="st13" d="M135.7,116.9c6.1,3.3,10.3,9.7,10.3,17.2c0,10.8-8.7,19.5-19.5,19.5s-19.5-8.7-19.5-19.5
			c0-7.4,4.2-13.9,10.3-17.2"/>
		<path d="M129,129.3c0,1.4-1.1,2.5-2.5,2.5l0,0c-1.4,0-2.5-1.1-2.5-2.5v-20c0-1.4,1.1-2.5,2.5-2.5l0,0c1.4,0,2.5,1.1,2.5,2.5V129.3
			z"/>
	</g>
</g>
<g id="Layer_10" class="st0">
	<g class="st1">
		<g>
			<path class="st14" d="M97.1,128.3c-7.4-3.6-10.5-12.4-7-19.8c3.6-7.4,12.4-10.5,19.8-7"/>
			<polyline class="st14" points="89.9,129.9 98.6,129.6 97.7,122.5 			"/>
		</g>
		<rect x="106" y="110.8" class="st15" width="37" height="44"/>
		<polygon class="st15" points="115,99.8 115,108.8 145,108.8 145,145.8 153,145.8 153,99.8 		"/>
		<text transform="matrix(1 0 0 1 116.6966 145.8343)" class="st16 st17 st18">V</text>
	</g>
</g>
<g id="Layer_11" class="st0">
	<g class="st1">
		<path class="st19" d="M141.7,141.4c0,2.2-1.8,4-4,4h-22.3c-2.2,0-4-1.8-4-4v-22.3c0-2.2,1.8-4,4-4h22.3c2.2,0,4,1.8,4,4
			C141.7,119.1,141.7,141.4,141.7,141.4z"/>
		<path class="st15" d="M133.2,136c0,1.1-0.9,2.1-1.9,2.1h-10.6c-1.1,0-1.9-0.9-1.9-2.1v-11.4c0-1.1,0.9-2.1,1.9-2.1h10.6
			c1.1,0,1.9,0.9,1.9,2.1V136z"/>
		<line class="st19" x1="117" y1="144.8" x2="117" y2="151.8"/>
		<line class="st19" x1="123" y1="144.8" x2="123" y2="151.8"/>
		<line class="st19" x1="130" y1="144.8" x2="130" y2="151.8"/>
		<line class="st19" x1="136" y1="144.8" x2="136" y2="151.8"/>
		<g>
			<line class="st19" x1="141" y1="139.8" x2="148" y2="139.8"/>
			<line class="st19" x1="141" y1="133.8" x2="148" y2="133.8"/>
			<line class="st19" x1="141" y1="126.8" x2="148" y2="126.8"/>
			<line class="st19" x1="141" y1="120.8" x2="148" y2="120.8"/>
		</g>
		<g>
			<line class="st19" x1="104" y1="139.8" x2="111" y2="139.8"/>
			<line class="st19" x1="104" y1="133.8" x2="111" y2="133.8"/>
			<line class="st19" x1="104" y1="126.8" x2="111" y2="126.8"/>
			<line class="st19" x1="104" y1="120.8" x2="111" y2="120.8"/>
		</g>
		<g>
			<line class="st19" x1="117" y1="107.8" x2="117" y2="114.8"/>
			<line class="st19" x1="123" y1="107.8" x2="123" y2="114.8"/>
			<line class="st19" x1="130" y1="107.8" x2="130" y2="114.8"/>
			<line class="st19" x1="136" y1="107.8" x2="136" y2="114.8"/>
		</g>
	</g>
</g>
<g id="Layer_12" class="st0">
	<g class="st1">
		<path class="st19" d="M147.8,113.5l-7.1-8.7c-1-0.9-1.5-1-1.5-1h-18.5c-3.3,0-3.8,4.3-3.8,4.3v30.5c0,0.9,1.1,2.2,1.1,2.2
			c0.9,1.2,3.3,1.1,3.3,1.1h23.4c1.5,0,2.4-1.2,2.4-1.2c0.8-1.1,0.7-2.7,0.7-2.7v-22.6C148,114.3,147.8,113.5,147.8,113.5z"/>
		<rect x="123" y="124.8" class="st15" width="20" height="14"/>
		<rect x="125" y="108.8" class="st15" width="3" height="8"/>
		<rect x="129" y="108.8" class="st15" width="3" height="8"/>
		<rect x="134" y="108.8" class="st15" width="3" height="8"/>
	</g>
</g>
<g id="Layer_13" class="st0">
	<g class="st1">
		<path class="st19" d="M130.6,138.8H141v-9h-4.6C136.4,129.8,134.7,135.8,130.6,138.8z"/>
		<path class="st15" d="M126.7,127.6l7.8,8.1c0,0,1.2,1.1,2.4-0.4c1.6-2-1.1-3-1.1-3L126.7,127.6z"/>
		<path class="st19" d="M144.5,140.5c0,1.5-1.4,2.7-3.1,2.7h-32.5c-1.7,0-3.1-1.2-3.1-2.7v-23.7c0-1.5,1.4-2.7,3.1-2.7h32.5
			c1.7,0,3.1,1.2,3.1,2.7V140.5z"/>
		<path class="st19" d="M122.3,117.7c-6,0-10.8,4.8-10.8,10.8s4.8,10.8,10.8,10.8s10.8-4.8,10.8-10.8S128.3,117.7,122.3,117.7z
			 M122.2,131.2c-1.6,0-2.9-1.3-2.9-2.9c0-1.6,1.3-2.9,2.9-2.9s2.9,1.3,2.9,2.9C125.1,130,123.8,131.2,122.2,131.2z"/>
	</g>
	<polygon class="st20" points="125,91.9 117.3,102.8 122,102.8 122,108.8 125,108.8 128,108.8 128,102.8 132.7,102.8 	"/>
	<polygon class="st20" points="125,165.7 117.3,154.8 122,154.8 122,148.8 125,148.8 128,148.8 128,154.8 132.7,154.8 	"/>
</g>
<g id="Layer_14" class="st0">
	<g class="st1">
		<g>
			<g>
				<g>
					<g>
						<defs>
							<circle id="SVGID_1_" cx="124.6" cy="126.8" r="31.5"/>
						</defs>
						<clipPath id="SVGID_2_">
							<use xlink:href="#SVGID_1_"  style="overflow:visible;"/>
						</clipPath>
						<g class="st21">
							<rect x="77" y="94.8" width="90" height="22"/>
							<rect x="77" y="115.8" class="st22" width="90" height="22"/>
							<rect x="77" y="137.8" class="st23" width="90" height="22"/>
						</g>
					</g>
				</g>
			</g>
		</g>
	</g>
</g>
<g id="Layer_15" class="st0">
	<g class="st1">
		<g>
			<g>
				<g>
					<g>
						<defs>
							<circle id="SVGID_3_" cx="124.6" cy="126.9" r="31.6"/>
						</defs>
						<clipPath id="SVGID_4_">
							<use xlink:href="#SVGID_3_"  style="overflow:visible;"/>
						</clipPath>
						<g class="st24">
							<rect x="76.4" y="95.1" class="st25" width="121.2" height="4.9"/>
							<rect x="76.4" y="124.3" class="st25" width="121.2" height="5.2"/>
							<rect x="76.4" y="119.4" class="st16" width="121.2" height="4.9"/>
							<rect x="76.4" y="114.6" class="st25" width="121.2" height="4.9"/>
							<rect x="76.4" y="109.7" class="st16" width="121.2" height="4.9"/>
							<rect x="76.4" y="104.9" class="st25" width="121.2" height="4.9"/>
							<rect x="76.4" y="100.1" class="st16" width="121.2" height="4.9"/>
							<rect x="76.4" y="153.6" class="st25" width="121.2" height="5.2"/>
							<rect x="76.4" y="148.8" class="st16" width="121.2" height="4.9"/>
							<rect x="76.4" y="143.9" class="st25" width="121.2" height="4.9"/>
							<rect x="76.4" y="139.1" class="st16" width="121.2" height="4.9"/>
							<rect x="76.4" y="134.2" class="st25" width="121.2" height="4.9"/>
							<rect x="76.4" y="129.4" class="st16" width="121.2" height="4.9"/>
							<g>
								<rect x="76.5" y="95.1" class="st26" width="48.1" height="34.2"/>
								<g>
									<g>
										<polygon class="st16" points="79.1,98.1 79.7,97 80.2,98.2 81.4,98.3 80.5,99.2 80.7,100.4 79.6,99.8 78.5,100.4 
											78.7,99.2 77.9,98.3 										"/>
										<polygon class="st16" points="87.5,98.1 88,97 88.6,98.2 89.8,98.3 88.9,99.2 89.1,100.4 88,99.8 86.9,100.4 87.1,99.2 
											86.2,98.3 										"/>
										<polygon class="st16" points="95.9,98.1 96.4,97 97,98.2 98.2,98.3 97.3,99.2 97.5,100.4 96.4,99.8 95.3,100.4 95.5,99.2 
											94.6,98.3 										"/>
										<polygon class="st16" points="104.3,98.1 104.8,97 105.4,98.2 106.6,98.3 105.7,99.2 105.9,100.4 104.8,99.8 103.7,100.4 
											103.9,99.2 103,98.3 										"/>
										<polygon class="st16" points="112.6,98.1 113.2,97 113.7,98.2 115,98.3 114.1,99.2 114.3,100.4 113.2,99.8 112.1,100.4 
											112.3,99.2 111.4,98.3 										"/>
										<polygon class="st16" points="121,98.1 121.6,97 122.1,98.2 123.4,98.3 122.5,99.2 122.7,100.4 121.6,99.8 120.5,100.4 
											120.7,99.2 119.8,98.3 										"/>
									</g>
									<g>
										<g>
											<polygon class="st16" points="83.4,101.6 84,100.5 84.5,101.6 85.8,101.8 84.9,102.6 85.1,103.9 84,103.3 82.9,103.9 
												83.1,102.6 82.2,101.8 											"/>
										</g>
										<g>
											<polygon class="st16" points="91.8,101.6 92.4,100.5 92.9,101.6 94.1,101.8 93.2,102.6 93.4,103.9 92.4,103.3 
												91.2,103.9 91.5,102.6 90.6,101.8 											"/>
										</g>
										<g>
											<polygon class="st16" points="100.2,101.6 100.8,100.5 101.3,101.6 102.5,101.8 101.6,102.6 101.8,103.9 100.7,103.3 
												99.6,103.9 99.8,102.6 99,101.8 											"/>
										</g>
										<g>
											<polygon class="st16" points="108.6,101.6 109.1,100.5 109.7,101.6 110.9,101.8 110,102.6 110.2,103.9 109.1,103.3 
												108,103.9 108.2,102.6 107.3,101.8 											"/>
										</g>
										<g>
											<polygon class="st16" points="117,101.6 117.5,100.5 118.1,101.6 119.3,101.8 118.4,102.6 118.6,103.9 117.5,103.3 
												116.4,103.9 116.6,102.6 115.7,101.8 											"/>
										</g>
									</g>
									<g>
										<g>
											<polygon class="st16" points="83.4,108.5 84,107.4 84.5,108.5 85.8,108.7 84.9,109.6 85.1,110.8 84,110.2 82.9,110.8 
												83.1,109.5 82.2,108.7 											"/>
										</g>
										<g>
											<polygon class="st16" points="91.8,108.5 92.4,107.4 92.9,108.5 94.1,108.7 93.2,109.6 93.4,110.8 92.4,110.2 
												91.2,110.8 91.5,109.5 90.6,108.7 											"/>
										</g>
										<g>
											<polygon class="st16" points="100.2,108.5 100.8,107.4 101.3,108.5 102.5,108.7 101.6,109.6 101.8,110.8 100.7,110.2 
												99.6,110.8 99.8,109.5 99,108.7 											"/>
										</g>
										<g>
											<polygon class="st16" points="108.6,108.5 109.1,107.4 109.7,108.5 110.9,108.7 110,109.6 110.2,110.8 109.1,110.2 
												108,110.8 108.2,109.5 107.3,108.7 											"/>
										</g>
										<g>
											<polygon class="st16" points="117,108.5 117.5,107.4 118.1,108.5 119.3,108.7 118.4,109.6 118.6,110.8 117.5,110.2 
												116.4,110.8 116.6,109.5 115.7,108.7 											"/>
										</g>
									</g>
									<g>
										<g>
											<polygon class="st16" points="83.4,115.4 84,114.3 84.5,115.4 85.8,115.6 84.9,116.5 85.1,117.7 84,117.1 82.9,117.7 
												83.1,116.4 82.2,115.6 											"/>
										</g>
										<g>
											<polygon class="st16" points="91.8,115.4 92.4,114.3 92.9,115.4 94.1,115.6 93.2,116.5 93.4,117.7 92.4,117.1 
												91.2,117.7 91.5,116.4 90.6,115.6 											"/>
										</g>
										<g>
											<polygon class="st16" points="100.2,115.4 100.8,114.3 101.3,115.4 102.5,115.6 101.6,116.5 101.8,117.7 100.7,117.1 
												99.6,117.7 99.8,116.4 99,115.6 											"/>
										</g>
										<g>
											<polygon class="st16" points="108.6,115.4 109.1,114.3 109.7,115.4 110.9,115.6 110,116.5 110.2,117.7 109.1,117.1 
												108,117.7 108.2,116.4 107.3,115.6 											"/>
										</g>
										<g>
											<polygon class="st16" points="117,115.4 117.5,114.3 118.1,115.4 119.3,115.6 118.4,116.5 118.6,117.7 117.5,117.1 
												116.4,117.7 116.6,116.4 115.7,115.6 											"/>
										</g>
									</g>
									<g>
										<g>
											<polygon class="st16" points="83.4,122.3 84,121.2 84.5,122.3 85.8,122.5 84.9,123.4 85.1,124.6 84,124 82.9,124.6 
												83.1,123.4 82.2,122.5 											"/>
										</g>
										<g>
											<polygon class="st16" points="91.8,122.3 92.4,121.2 92.9,122.3 94.1,122.5 93.2,123.4 93.4,124.6 92.4,124 91.2,124.6 
												91.5,123.4 90.6,122.5 											"/>
										</g>
										<g>
											<polygon class="st16" points="100.2,122.3 100.8,121.2 101.3,122.3 102.5,122.5 101.6,123.4 101.8,124.6 100.7,124 
												99.6,124.6 99.8,123.4 99,122.5 											"/>
										</g>
										<g>
											<polygon class="st16" points="108.6,122.3 109.1,121.2 109.7,122.3 110.9,122.5 110,123.4 110.2,124.6 109.1,124 
												108,124.6 108.2,123.4 107.3,122.5 											"/>
										</g>
										<g>
											<polygon class="st16" points="117,122.3 117.5,121.2 118.1,122.3 119.3,122.5 118.4,123.4 118.6,124.6 117.5,124 
												116.4,124.6 116.6,123.4 115.7,122.5 											"/>
										</g>
									</g>
									<g>
										<polygon class="st16" points="79.1,105.1 79.7,103.9 80.2,105.1 81.4,105.2 80.5,106.1 80.7,107.3 79.6,106.7 78.5,107.3 
											78.7,106.1 77.9,105.2 										"/>
										<polygon class="st16" points="87.5,105.1 88,103.9 88.6,105.1 89.8,105.2 88.9,106.1 89.1,107.3 88,106.7 86.9,107.3 
											87.1,106.1 86.2,105.2 										"/>
										<polygon class="st16" points="95.9,105.1 96.4,103.9 97,105.1 98.2,105.2 97.3,106.1 97.5,107.3 96.4,106.7 95.3,107.3 
											95.5,106.1 94.6,105.2 										"/>
										<polygon class="st16" points="104.3,105.1 104.8,103.9 105.4,105.1 106.6,105.2 105.7,106.1 105.9,107.3 104.8,106.7 
											103.7,107.3 103.9,106.1 103,105.2 										"/>
										<polygon class="st16" points="112.6,105.1 113.2,103.9 113.7,105.1 115,105.2 114.1,106.1 114.3,107.3 113.2,106.7 
											112.1,107.3 112.3,106.1 111.4,105.2 										"/>
										<polygon class="st16" points="121,105.1 121.6,103.9 122.1,105.1 123.4,105.2 122.5,106.1 122.7,107.3 121.6,106.7 
											120.5,107.3 120.7,106.1 119.8,105.2 										"/>
									</g>
									<g>
										<polygon class="st16" points="79.1,112 79.7,110.9 80.2,112 81.4,112.2 80.5,113 80.7,114.2 79.6,113.6 78.5,114.2 
											78.7,113 77.9,112.1 										"/>
										<polygon class="st16" points="87.5,112 88,110.9 88.6,112 89.8,112.2 88.9,113 89.1,114.2 88,113.6 86.9,114.2 87.1,113 
											86.2,112.1 										"/>
										<polygon class="st16" points="95.9,112 96.4,110.9 97,112 98.2,112.2 97.3,113 97.5,114.2 96.4,113.6 95.3,114.2 
											95.5,113 94.6,112.1 										"/>
										<polygon class="st16" points="104.3,112 104.8,110.9 105.4,112 106.6,112.2 105.7,113 105.9,114.2 104.8,113.6 
											103.7,114.2 103.9,113 103,112.1 										"/>
										<polygon class="st16" points="112.6,112 113.2,110.9 113.7,112 115,112.2 114.1,113 114.3,114.2 113.2,113.6 112.1,114.2 
											112.3,113 111.4,112.1 										"/>
										<polygon class="st16" points="121,112 121.6,110.9 122.1,112 123.4,112.2 122.5,113 122.7,114.2 121.6,113.6 120.5,114.2 
											120.7,113 119.8,112.1 										"/>
									</g>
									<g>
										<polygon class="st16" points="79.1,118.9 79.7,117.8 80.2,118.9 81.4,119.1 80.5,119.9 80.7,121.1 79.6,120.6 78.5,121.1 
											78.7,119.9 77.9,119 										"/>
										<polygon class="st16" points="87.5,118.9 88,117.8 88.6,118.9 89.8,119.1 88.9,119.9 89.1,121.1 88,120.6 86.9,121.1 
											87.1,119.9 86.2,119 										"/>
										<polygon class="st16" points="95.9,118.9 96.4,117.8 97,118.9 98.2,119.1 97.3,119.9 97.5,121.1 96.4,120.6 95.3,121.1 
											95.5,119.9 94.6,119 										"/>
										<polygon class="st16" points="104.3,118.9 104.8,117.8 105.4,118.9 106.6,119.1 105.7,119.9 105.9,121.1 104.8,120.6 
											103.7,121.1 103.9,119.9 103,119 										"/>
										<polygon class="st16" points="112.6,118.9 113.2,117.8 113.7,118.9 115,119.1 114.1,119.9 114.3,121.1 113.2,120.6 
											112.1,121.1 112.3,119.9 111.4,119 										"/>
										<polygon class="st16" points="121,118.9 121.6,117.8 122.1,118.9 123.4,119.1 122.5,119.9 122.7,121.1 121.6,120.6 
											120.5,121.1 120.7,119.9 119.8,119 										"/>
									</g>
									<g>
										<polygon class="st16" points="79.1,125.8 79.7,124.7 80.2,125.8 81.4,126 80.5,126.8 80.7,128 79.6,127.5 78.5,128 
											78.7,126.8 77.9,125.9 										"/>
										<polygon class="st16" points="87.5,125.8 88,124.7 88.6,125.8 89.8,126 88.9,126.8 89.1,128 88,127.5 86.9,128 
											87.1,126.8 86.2,125.9 										"/>
										<polygon class="st16" points="95.9,125.8 96.4,124.7 97,125.8 98.2,126 97.3,126.8 97.5,128 96.4,127.5 95.3,128 
											95.5,126.8 94.6,125.9 										"/>
										<polygon class="st16" points="104.3,125.8 104.8,124.7 105.4,125.8 106.6,126 105.7,126.8 105.9,128 104.8,127.5 
											103.7,128 103.9,126.8 103,125.9 										"/>
										<polygon class="st16" points="112.6,125.8 113.2,124.7 113.7,125.8 115,126 114.1,126.8 114.3,128 113.2,127.5 112.1,128 
											112.3,126.8 111.4,125.9 										"/>
										<polygon class="st16" points="121,125.8 121.6,124.7 122.1,125.8 123.4,126 122.5,126.8 122.7,128 121.6,127.5 120.5,128 
											120.7,126.8 119.8,125.9 										"/>
									</g>
								</g>
							</g>
						</g>
					</g>
				</g>
			</g>
		</g>
	</g>
</g>
<g id="Layer_16" class="st0">
	<path class="st27" d="M149.6,127.5c-10.7-10.1-24.7-9.2-24.7-9.2c-15.3,0-23.7,9.6-23.7,9.6"/>
	<path class="st28" d="M131.3,133.9l-7-1.6l5.9-4.1l2.3-1.5c-1.5-2.1-3.9-3.4-6.6-3.4c-4.5,0-8.1,3.6-8.1,8.1c0,4.5,3.6,8.1,8.1,8.1
		c3.4,0,6.3-2.1,7.5-5.1L131.3,133.9z"/>
</g>
<g id="Layer_17" class="st0">
	<g class="st1">
		<polygon points="129,126.6 133.2,120.9 139.7,110.8 125.1,110.8 112.3,110.8 118.5,120.9 122,126.4 122,151.9 129,147.4 		"/>
		<line class="st11" x1="111" y1="106.3" x2="141" y2="106.3"/>
	</g>
	<path class="st29" d="M128.9,147.5"/>
	<path class="st29" d="M128.9,126.6"/>
</g>
<g>
	<g>
		<path class="st16" d="M56.6,71.9h140.1v-11c0,0,0.2-2.9-5.7-2.6h-22.3V17.5c0-6-4.9-10.9-10.9-10.9c-6,0-10.9,4.9-10.9,10.9v40.8
			h-18.6h-3.1h-18.7V17.5c0-6-4.9-10.9-10.9-10.9c-6,0-10.9,4.9-10.9,10.9v40.8H62.3c-6-0.1-5.7,2.6-5.7,2.6v11H56.6z"/>
		<path class="st16" d="M56.6,84.4v16.3c0.6,19.4,8.8,35,8.8,35C76.9,158.3,99.2,168,99.2,168c4.9,2.1,9.4,3.2,13.3,3.7v67.4
			c0,6,4.9,10.9,10.9,10.9h9.7c6,0,10.9-4.9,10.9-10.9v-67.9c3.2-0.7,6.6-1.7,10.3-3.2c0,0,22.3-9.7,33.7-32.3c0,0,8.3-15.7,8.8-35
			V84.4H56.6z"/>
	</g>
	
		<rect x="-31.3" y="107.8" transform="matrix(0.7071 -0.7071 0.7071 0.7071 -46.1927 122.687)" class="st30" width="312.6" height="18.6"/>
</g>
<rect class="st31" width="250" height="250"/>
</svg>
