<?xml version="1.0" encoding="utf-8"?>
<!-- Generator: Adobe Illustrator 19.2.0, SVG Export Plug-In . SVG Version: 6.00 Build 0)  -->
<svg version="1.1" id="Layer_1" xmlns="http://www.w3.org/2000/svg" xmlns:xlink="http://www.w3.org/1999/xlink" x="0px" y="0px"
	 viewBox="0 0 250 250" style="enable-background:new 0 0 250 250;" xml:space="preserve">
<style type="text/css">
	.st0{display:none;}
	.st1{display:inline;}
	.st2{fill:none;stroke:#020202;stroke-width:1.5;stroke-miterlimit:10;}
	.st3{fill:none;stroke:#020202;stroke-width:2;stroke-miterlimit:10;}
	.st4{fill:none;stroke:#020202;stroke-miterlimit:10;}
	.st5{fill:none;stroke:#020202;stroke-width:3;stroke-miterlimit:10;}
	.st6{display:inline;fill:none;stroke:#020202;stroke-width:2;stroke-miterlimit:10;}
	.st7{fill:none;stroke:#000000;stroke-width:2;stroke-miterlimit:10;}
	.st8{fill:none;stroke:#000000;stroke-width:4;stroke-miterlimit:10;}
	.st9{font-family:'TimesNewRomanPS-BoldMT';}
	.st10{font-size:42px;}
	.st11{fill:none;stroke:#000000;stroke-width:3;stroke-miterlimit:10;}
	.st12{display:inline;fill:none;stroke:#000000;stroke-width:3;stroke-miterlimit:10;}
	.st13{fill:none;stroke:#000000;stroke-width:3;stroke-linecap:round;stroke-miterlimit:10;}
	.st14{fill:none;stroke:#34B4CF;stroke-width:3;stroke-miterlimit:10;}
	.st15{fill:#34B4CF;}
	.st16{fill:#FFFFFF;}
	.st17{font-family:'Calibri';}
	.st18{font-size:28px;}
	.st19{fill:none;stroke:#34B4CF;stroke-width:2;stroke-miterlimit:10;}
	.st20{display:inline;fill:#34B4CF;}
	.st21{clip-path:url(#SVGID_2_);}
	.st22{fill:#DC1A28;}
	.st23{fill:#F8D834;}
	.st24{clip-path:url(#SVGID_4_);}
	.st25{fill:#EC1C24;}
	.st26{fill:#262261;}
	.st27{fill:none;}
</style>
<g id="Layer_1_1_" class="st0">
	<g class="st1">
		<path class="st2" d="M144.7,153.5c0,1.8-1.5,3.3-3.3,3.3H107c-1.8,0-3.3-1.5-3.3-3.3v-34.4c0-1.8,1.5-3.3,3.3-3.3h34.4
			c1.8,0,3.3,1.5,3.3,3.3V153.5z"/>
		<line class="st3" x1="104" y1="130" x2="144" y2="130"/>
		<line class="st3" x1="104" y1="145" x2="144" y2="145"/>
		<circle class="st4" cx="136.7" cy="123" r="1.8"/>
		<circle class="st4" cx="136.7" cy="136.9" r="1.8"/>
		<circle class="st4" cx="136.6" cy="150.3" r="1.8"/>
		<line class="st5" x1="109" y1="122.5" x2="125" y2="122.5"/>
		<line class="st5" x1="109" y1="136.5" x2="125" y2="136.5"/>
		<line class="st5" x1="109" y1="149.5" x2="125" y2="149.5"/>
	</g>
	<polyline class="st6" points="158,160 158,126 170.3,126 125.3,92 79.6,126 91,126 91,160 	"/>
</g>
<g id="Layer_2" class="st0">
	<g class="st1">
		<path class="st7" d="M150.5,145.5c0,2.2-1.8,4-4,4h-41.9c-2.2,0-4-1.8-4-4v-41.9c0-2.2,1.8-4,4-4h41.9c2.2,0,4,1.8,4,4V145.5z"/>
		<line class="st7" x1="100" y1="116" x2="150" y2="116"/>
		<line class="st7" x1="100" y1="134" x2="150" y2="134"/>
		<circle class="st7" cx="140.8" cy="108.3" r="2.3"/>
		<circle class="st7" cx="140.8" cy="125.3" r="2.3"/>
		<circle class="st7" cx="140.8" cy="142.3" r="2.3"/>
		<line class="st8" x1="107" y1="108" x2="126" y2="108"/>
		<line class="st8" x1="107" y1="125" x2="126" y2="125"/>
		<line class="st8" x1="107" y1="142" x2="126" y2="142"/>
	</g>
</g>
<g id="Layer_3" class="st0">
	<g class="st1">
		<path class="st7" d="M133.7,140H148v-13h-5.7C142.3,127,139.7,135,133.7,140z"/>
		<path d="M128.8,121.3l11.6,16.3c0,0,1.9,2.2,4.3,0c3.4-3.1-1.1-5.6-1.1-5.6L128.8,121.3z"/>
		<path class="st7" d="M154,141.7c0,2.2-1.8,4.3-4.4,4.3h-48.5c-2.6,0-4.2-2.1-4.2-4.3v-35.3c0-2.2,1.6-3.4,4.2-3.4h48.5
			c2.6,0,4.4,1.1,4.4,3.4V141.7z"/>
		<path class="st7" d="M121.3,107.7c-8.9,0-16.1,7.2-16.1,16.1s7.2,16.1,16.1,16.1s16.1-7.2,16.1-16.1
			C137.4,114.9,130.2,107.7,121.3,107.7z M121.2,127.9c-2.4,0-4.3-1.9-4.3-4.3s1.9-4.3,4.3-4.3s4.3,1.9,4.3,4.3
			C125.4,125.9,123.5,127.9,121.2,127.9z"/>
	</g>
</g>
<g id="Layer_4" class="st0">
	<g class="st1">
		<path d="M124,119c0,0,0.4-3,3.1-3h9.8c0,0,2.8,0,2.8,3H124z"/>
		<circle class="st7" cx="131.8" cy="135.8" r="12.1"/>
		<path d="M131.8,126.5c-5.1,0-9.3,4.2-9.3,9.3s4.2,9.3,9.3,9.3s9.3-4.2,9.3-9.3S136.9,126.5,131.8,126.5z"/>
		<g>
			<path class="st7" d="M109,146v2.8c0,1.7,1.2,3.2,3.4,3.2h39.8c2.2,0,2.8-1.4,2.8-3.2v-27.2c0-1.7-0.7-2.6-2.8-2.6H146"/>
			<path class="st7" d="M112.4,119H146v-17v-3.4c0-1.7-1.2-1.6-2.9-1.6H98.8c-1.7,0-2.8-0.1-2.8,1.6v3.4v40.9c0,1.7,1.1,3.1,2.8,3.1
				H109v-24.4C109,119.9,110.2,119,112.4,119z"/>
		</g>
		<path d="M143.1,97H99.6c-2,0-3.6,0.3-3.6,2.8v3.2h50v-3.2C146,97.3,145.1,97,143.1,97z M136.6,101.6c-0.9,0-1.7-0.8-1.7-1.7
			c0-0.9,0.8-1.7,1.7-1.7s1.7,0.8,1.7,1.7C138.3,100.8,137.5,101.6,136.6,101.6z M141.6,101.6c-0.9,0-1.7-0.8-1.7-1.7
			c0-0.9,0.8-1.7,1.7-1.7s1.7,0.8,1.7,1.7C143.3,100.8,142.5,101.6,141.6,101.6z"/>
	</g>
</g>
<g id="Layer_5" class="st0">
	<g class="st1">
		<path class="st7" d="M140.3,113.7h-3.5l-1.4-3.7c0,0-0.8-1.1-2.4-1.1s-12.5,0-12.5,0s-1.1,0-1.8,1.8l-1.1,3h-7.5c-2.2,0-4,1.8-4,4
			v19c0,2.2,1.8,4,4,4h30c2.2,0,4-1.8,4-4v-19C144.3,115.5,142.5,113.7,140.3,113.7z"/>
		<rect x="109.8" y="117.7" width="4.8" height="19.7"/>
		<circle class="st7" cx="128.6" cy="127.5" r="9.2"/>
	</g>
</g>
<g id="Layer_6" class="st0">
	<g class="st1">
		<path class="st7" d="M142.1,130.4c-0.9,0-1.7,0.1-2.5,0.3l-17.9-18c0,0,2.3-4.8-1.6-10c0,0-1.3-2.6-6.2-4.6c0,0-3.7-1.2-7.2-0.1
			c-1.1,1.1-1.1,1.1-1.1,1.1l9,8.1l0.1,4.6c0,0-1,0.9-1.8,1.3l-5.2-0.1l-8.3-8.8l-0.9,1c0,0-1.2,7.8,3.1,11.9c0,0,4.9,5.6,12.8,3
			l17.7,17.7c-0.3,1-0.5,2-0.5,3.1c0,5.8,4.7,10.4,10.4,10.4c5.8,0,10.4-4.7,10.4-10.4C152.5,135,147.8,130.4,142.1,130.4z
			 M143.8,146.2l-5.8-1.4l-1.7-5.7l4.1-4.3l5.8,1.4l1.7,5.7L143.8,146.2z"/>
		<polygon points="123.5,121.8 138,107.5 138,103.5 148.6,97.7 151.5,100.4 145.5,111 141.4,111.3 127.1,125.8 		"/>
		<path d="M122.9,122.1l-1.5-0.1l-4.1,4h-3.1l-16.4,15.2c0,0-0.7,1-0.5,2.2c0,0,1.7,6.3,7.5,7.6c0,0,1.3,0.2,2.4-0.1l16.5-16.9
			l-0.1-3.1l3.4-3.3v-1.1C127,126.5,126.2,125.7,122.9,122.1z"/>
	</g>
</g>
<g id="Layer_7" class="st0">
	<g class="st1">
		<text transform="matrix(1 0 0 1 118.8218 137.9824)" class="st9 st10">i</text>
		<circle class="st11" cx="124.7" cy="123.5" r="24.2"/>
	</g>
</g>
<g id="Layer_8" class="st0">
	<text transform="matrix(1 0 0 1 114.5444 139.9824)" class="st1 st9 st10">?</text>
	<circle class="st12" cx="124.9" cy="125.5" r="24.2"/>
</g>
<g id="Layer_9" class="st0">
	<g class="st1">
		<path class="st13" d="M135.7,113.1c6.1,3.3,10.3,9.7,10.3,17.2c0,10.8-8.7,19.5-19.5,19.5s-19.5-8.7-19.5-19.5
			c0-7.4,4.2-13.9,10.3-17.2"/>
		<path d="M129,125.5c0,1.4-1.1,2.5-2.5,2.5l0,0c-1.4,0-2.5-1.1-2.5-2.5v-20c0-1.4,1.1-2.5,2.5-2.5l0,0c1.4,0,2.5,1.1,2.5,2.5V125.5
			z"/>
	</g>
</g>
<g id="Layer_10" class="st0">
	<g class="st1">
		<g>
			<path class="st14" d="M97.1,124.5c-7.4-3.6-10.5-12.4-7-19.8c3.6-7.4,12.4-10.5,19.8-7"/>
			<polyline class="st14" points="89.9,126.1 98.6,125.8 97.7,118.7 			"/>
		</g>
		<rect x="106" y="107" class="st15" width="37" height="44"/>
		<polygon class="st15" points="115,96 115,105 145,105 145,142 153,142 153,96 		"/>
		<text transform="matrix(1 0 0 1 116.666 142)" class="st16 st17 st18">V</text>
	</g>
</g>
<g id="Layer_11" class="st0">
	<g class="st1">
		<path class="st19" d="M141.7,137.6c0,2.2-1.8,4-4,4h-22.3c-2.2,0-4-1.8-4-4v-22.3c0-2.2,1.8-4,4-4h22.3c2.2,0,4,1.8,4,4V137.6z"/>
		<path class="st15" d="M133.2,132.2c0,1.1-0.9,2.1-1.9,2.1h-10.6c-1.1,0-1.9-0.9-1.9-2.1v-11.4c0-1.1,0.9-2.1,1.9-2.1h10.6
			c1.1,0,1.9,0.9,1.9,2.1V132.2z"/>
		<line class="st19" x1="117" y1="141" x2="117" y2="148"/>
		<line class="st19" x1="123" y1="141" x2="123" y2="148"/>
		<line class="st19" x1="130" y1="141" x2="130" y2="148"/>
		<line class="st19" x1="136" y1="141" x2="136" y2="148"/>
		<g>
			<line class="st19" x1="141" y1="136" x2="148" y2="136"/>
			<line class="st19" x1="141" y1="130" x2="148" y2="130"/>
			<line class="st19" x1="141" y1="123" x2="148" y2="123"/>
			<line class="st19" x1="141" y1="117" x2="148" y2="117"/>
		</g>
		<g>
			<line class="st19" x1="104" y1="136" x2="111" y2="136"/>
			<line class="st19" x1="104" y1="130" x2="111" y2="130"/>
			<line class="st19" x1="104" y1="123" x2="111" y2="123"/>
			<line class="st19" x1="104" y1="117" x2="111" y2="117"/>
		</g>
		<g>
			<line class="st19" x1="117" y1="104" x2="117" y2="111"/>
			<line class="st19" x1="123" y1="104" x2="123" y2="111"/>
			<line class="st19" x1="130" y1="104" x2="130" y2="111"/>
			<line class="st19" x1="136" y1="104" x2="136" y2="111"/>
		</g>
	</g>
</g>
<g id="Layer_12" class="st0">
	<g class="st1">
		<path class="st19" d="M147.8,109.7l-7.1-8.7c-1-0.9-1.5-1-1.5-1h-18.5c-3.3,0-3.8,4.3-3.8,4.3v30.5c0,0.9,1.1,2.2,1.1,2.2
			c0.9,1.2,3.3,1.1,3.3,1.1h23.4c1.5,0,2.4-1.2,2.4-1.2c0.8-1.1,0.7-2.7,0.7-2.7v-22.6C148,110.5,147.8,109.7,147.8,109.7z"/>
		<rect x="123" y="121" class="st15" width="20" height="14"/>
		<rect x="125" y="105" class="st15" width="3" height="8"/>
		<rect x="129" y="105" class="st15" width="3" height="8"/>
		<rect x="134" y="105" class="st15" width="3" height="8"/>
	</g>
</g>
<g id="Layer_13" class="st0">
	<g class="st1">
		<path class="st19" d="M130.6,135H141v-9h-4.6C136.4,126,134.7,132,130.6,135z"/>
		<path class="st15" d="M126.7,123.8l7.8,8.1c0,0,1.2,1.1,2.4-0.4c1.6-2-1.1-3-1.1-3L126.7,123.8z"/>
		<path class="st19" d="M144.5,136.7c0,1.5-1.4,2.7-3.1,2.7h-32.5c-1.7,0-3.1-1.2-3.1-2.7V113c0-1.5,1.4-2.7,3.1-2.7h32.5
			c1.7,0,3.1,1.2,3.1,2.7V136.7z"/>
		<path class="st19" d="M122.3,113.9c-6,0-10.8,4.8-10.8,10.8c0,6,4.8,10.8,10.8,10.8s10.8-4.8,10.8-10.8S128.3,113.9,122.3,113.9z
			 M122.2,127.4c-1.6,0-2.9-1.3-2.9-2.9s1.3-2.9,2.9-2.9s2.9,1.3,2.9,2.9C125.1,126.2,123.8,127.4,122.2,127.4z"/>
	</g>
	<polygon class="st20" points="125,88.1 117.3,99 122,99 122,105 125,105 128,105 128,99 132.7,99 	"/>
	<polygon class="st20" points="125,161.9 117.3,151 122,151 122,145 125,145 128,145 128,151 132.7,151 	"/>
</g>
<g id="Layer_14" class="st0">
	<g class="st1">
		<g>
			<g>
				<defs>
					<circle id="SVGID_1_" cx="124.6" cy="123" r="31.5"/>
				</defs>
				<clipPath id="SVGID_2_">
					<use xlink:href="#SVGID_1_"  style="overflow:visible;"/>
				</clipPath>
				<g class="st21">
					<rect x="77" y="91" width="90" height="22"/>
					<rect x="77" y="112" class="st22" width="90" height="22"/>
					<rect x="77" y="134" class="st23" width="90" height="22"/>
				</g>
			</g>
		</g>
	</g>
</g>
<g id="Layer_15">
	<g>
		<g>
			<g>
				<defs>
					<circle id="SVGID_3_" cx="125" cy="125" r="125"/>
				</defs>
				<clipPath id="SVGID_4_">
					<use xlink:href="#SVGID_3_"  style="overflow:visible;"/>
				</clipPath>
				<g class="st24">
					<rect x="-65.7" y="-0.8" class="st25" width="479.4" height="19.4"/>
					<rect x="-65.7" y="114.7" class="st25" width="479.4" height="20.6"/>
					<rect x="-65.7" y="95.4" class="st16" width="479.4" height="19.4"/>
					<rect x="-65.7" y="76.3" class="st25" width="479.4" height="19.4"/>
					<rect x="-65.7" y="56.9" class="st16" width="479.4" height="19.4"/>
					<rect x="-65.7" y="37.9" class="st25" width="479.4" height="19.4"/>
					<rect x="-65.7" y="19" class="st16" width="479.4" height="19.4"/>
					<rect x="-65.7" y="230.6" class="st25" width="479.4" height="20.6"/>
					<rect x="-65.7" y="211.6" class="st16" width="479.4" height="19.4"/>
					<rect x="-65.7" y="192.2" class="st25" width="479.4" height="19.4"/>
					<rect x="-65.7" y="173.3" class="st16" width="479.4" height="19.4"/>
					<rect x="-65.7" y="153.9" class="st25" width="479.4" height="19.4"/>
					<rect x="-65.7" y="134.9" class="st16" width="479.4" height="19.4"/>
					<g>
						<rect x="-65.2" y="-0.8" class="st26" width="190.2" height="135.3"/>
						<g>
							<g>
								<polygon class="st16" points="-55,11.1 -52.6,6.7 -50.6,11.5 -45.8,11.9 -49.4,15.4 -48.7,20.1 -53,17.8 -57.3,20.1 
									-56.6,15.4 -59.8,11.9 								"/>
								<polygon class="st16" points="-21.7,11.1 -19.8,6.7 -17.4,11.5 -12.6,11.9 -16.2,15.4 -15.4,20.1 -19.8,17.8 -24.1,20.1 
									-23.3,15.4 -26.9,11.9 								"/>
								<polygon class="st16" points="11.5,11.1 13.5,6.7 15.8,11.5 20.6,11.9 17,15.4 17.8,20.1 13.5,17.8 9.1,20.1 9.9,15.4 
									6.3,11.9 								"/>
								<polygon class="st16" points="44.7,11.1 46.7,6.7 49,11.5 53.8,11.9 50.3,15.4 51,20.1 46.7,17.8 42.4,20.1 43.1,15.4 
									39.5,11.9 								"/>
								<polygon class="st16" points="77.6,11.1 79.9,6.7 81.9,11.5 87.1,11.9 83.5,15.4 84.2,20.1 79.9,17.8 75.6,20.1 76.3,15.4 
									72.8,11.9 								"/>
								<polygon class="st16" points="110.8,11.1 113.1,6.7 115.1,11.5 120.3,11.9 116.7,15.4 117.5,20.1 113.1,17.8 108.8,20.1 
									109.6,15.4 106,11.9 								"/>
							</g>
							<g>
								<g>
									<polygon class="st16" points="-37.9,24.9 -35.6,20.6 -33.6,24.9 -28.5,25.7 -32,28.9 -31.3,34 -35.6,31.6 -39.9,34 
										-39.2,28.9 -42.7,25.7 									"/>
								</g>
								<g>
									<polygon class="st16" points="-4.7,24.9 -2.4,20.6 -0.4,24.9 4.3,25.7 0.8,28.9 1.6,34 -2.4,31.6 -7.2,34 -5.9,28.9 
										-9.5,25.7 									"/>
								</g>
								<g>
									<polygon class="st16" points="28.5,24.9 30.9,20.6 32.9,24.9 37.6,25.7 34,28.9 34.8,34 30.5,31.6 26.1,34 26.9,28.9 
										23.7,25.7 									"/>
								</g>
								<g>
									<polygon class="st16" points="61.7,24.9 63.7,20.6 66.1,24.9 70.8,25.7 67.2,28.9 68.1,34 63.7,31.6 59.3,34 60.1,28.9 
										56.6,25.7 									"/>
								</g>
								<g>
									<polygon class="st16" points="95,24.9 97,20.6 99.3,24.9 104,25.7 100.4,28.9 101.3,34 97,31.6 92.5,34 93.4,28.9 
										89.8,25.7 									"/>
								</g>
							</g>
							<g>
								<g>
									<polygon class="st16" points="-37.9,52.2 -35.6,47.8 -33.6,52.2 -28.5,53 -32,56.6 -31.3,61.3 -35.6,58.9 -39.9,61.3 
										-39.2,56.2 -42.7,53 									"/>
								</g>
								<g>
									<polygon class="st16" points="-4.7,52.2 -2.4,47.8 -0.4,52.2 4.3,53 0.8,56.6 1.6,61.3 -2.4,58.9 -7.2,61.3 -5.9,56.2 
										-9.5,53 									"/>
								</g>
								<g>
									<polygon class="st16" points="28.5,52.2 30.9,47.8 32.9,52.2 37.6,53 34,56.6 34.8,61.3 30.5,58.9 26.1,61.3 26.9,56.2 
										23.7,53 									"/>
								</g>
								<g>
									<polygon class="st16" points="61.7,52.2 63.7,47.8 66.1,52.2 70.8,53 67.2,56.6 68.1,61.3 63.7,58.9 59.3,61.3 60.1,56.2 
										56.6,53 									"/>
								</g>
								<g>
									<polygon class="st16" points="95,52.2 97,47.8 99.3,52.2 104,53 100.4,56.6 101.3,61.3 97,58.9 92.5,61.3 93.4,56.2 
										89.8,53 									"/>
								</g>
							</g>
							<g>
								<g>
									<polygon class="st16" points="-37.9,79.5 -35.6,75.1 -33.6,79.5 -28.5,80.3 -32,83.9 -31.3,88.6 -35.6,86.2 -39.9,88.6 
										-39.2,83.5 -42.7,80.3 									"/>
								</g>
								<g>
									<polygon class="st16" points="-4.7,79.5 -2.4,75.1 -0.4,79.5 4.3,80.3 0.8,83.9 1.6,88.6 -2.4,86.2 -7.2,88.6 -5.9,83.5 
										-9.5,80.3 									"/>
								</g>
								<g>
									<polygon class="st16" points="28.5,79.5 30.9,75.1 32.9,79.5 37.6,80.3 34,83.9 34.8,88.6 30.5,86.2 26.1,88.6 26.9,83.5 
										23.7,80.3 									"/>
								</g>
								<g>
									<polygon class="st16" points="61.7,79.5 63.7,75.1 66.1,79.5 70.8,80.3 67.2,83.9 68.1,88.6 63.7,86.2 59.3,88.6 
										60.1,83.5 56.6,80.3 									"/>
								</g>
								<g>
									<polygon class="st16" points="95,79.5 97,75.1 99.3,79.5 104,80.3 100.4,83.9 101.3,88.6 97,86.2 92.5,88.6 93.4,83.5 
										89.8,80.3 									"/>
								</g>
							</g>
							<g>
								<g>
									<polygon class="st16" points="-37.9,106.8 -35.6,102.4 -33.6,106.8 -28.5,107.6 -32,111.2 -31.3,115.9 -35.6,113.5 
										-39.9,115.9 -39.2,111.2 -42.7,107.6 									"/>
								</g>
								<g>
									<polygon class="st16" points="-4.7,106.8 -2.4,102.4 -0.4,106.8 4.3,107.6 0.8,111.2 1.6,115.9 -2.4,113.5 -7.2,115.9 
										-5.9,111.2 -9.5,107.6 									"/>
								</g>
								<g>
									<polygon class="st16" points="28.5,106.8 30.9,102.4 32.9,106.8 37.6,107.6 34,111.2 34.8,115.9 30.5,113.5 26.1,115.9 
										26.9,111.2 23.7,107.6 									"/>
								</g>
								<g>
									<polygon class="st16" points="61.7,106.8 63.7,102.4 66.1,106.8 70.8,107.6 67.2,111.2 68.1,115.9 63.7,113.5 59.3,115.9 
										60.1,111.2 56.6,107.6 									"/>
								</g>
								<g>
									<polygon class="st16" points="95,106.8 97,102.4 99.3,106.8 104,107.6 100.4,111.2 101.3,115.9 97,113.5 92.5,115.9 
										93.4,111.2 89.8,107.6 									"/>
								</g>
							</g>
							<g>
								<polygon class="st16" points="-55,38.8 -52.6,34 -50.6,38.8 -45.8,39.2 -49.4,42.7 -48.7,47.4 -53,45.1 -57.3,47.4 
									-56.6,42.7 -59.8,39.2 								"/>
								<polygon class="st16" points="-21.7,38.8 -19.8,34 -17.4,38.8 -12.6,39.2 -16.2,42.7 -15.4,47.4 -19.8,45.1 -24.1,47.4 
									-23.3,42.7 -26.9,39.2 								"/>
								<polygon class="st16" points="11.5,38.8 13.5,34 15.8,38.8 20.6,39.2 17,42.7 17.8,47.4 13.5,45.1 9.1,47.4 9.9,42.7 
									6.3,39.2 								"/>
								<polygon class="st16" points="44.7,38.8 46.7,34 49,38.8 53.8,39.2 50.3,42.7 51,47.4 46.7,45.1 42.4,47.4 43.1,42.7 
									39.5,39.2 								"/>
								<polygon class="st16" points="77.6,38.8 79.9,34 81.9,38.8 87.1,39.2 83.5,42.7 84.2,47.4 79.9,45.1 75.6,47.4 76.3,42.7 
									72.8,39.2 								"/>
								<polygon class="st16" points="110.8,38.8 113.1,34 115.1,38.8 120.3,39.2 116.7,42.7 117.5,47.4 113.1,45.1 108.8,47.4 
									109.6,42.7 106,39.2 								"/>
							</g>
							<g>
								<polygon class="st16" points="-55,66.1 -52.6,61.7 -50.6,66.1 -45.8,66.8 -49.4,70 -48.7,74.7 -53,72.4 -57.3,74.7 
									-56.6,70 -59.8,66.5 								"/>
								<polygon class="st16" points="-21.7,66.1 -19.8,61.7 -17.4,66.1 -12.6,66.8 -16.2,70 -15.4,74.7 -19.8,72.4 -24.1,74.7 
									-23.3,70 -26.9,66.5 								"/>
								<polygon class="st16" points="11.5,66.1 13.5,61.7 15.8,66.1 20.6,66.8 17,70 17.8,74.7 13.5,72.4 9.1,74.7 9.9,70 
									6.3,66.5 								"/>
								<polygon class="st16" points="44.7,66.1 46.7,61.7 49,66.1 53.8,66.8 50.3,70 51,74.7 46.7,72.4 42.4,74.7 43.1,70 
									39.5,66.5 								"/>
								<polygon class="st16" points="77.6,66.1 79.9,61.7 81.9,66.1 87.1,66.8 83.5,70 84.2,74.7 79.9,72.4 75.6,74.7 76.3,70 
									72.8,66.5 								"/>
								<polygon class="st16" points="110.8,66.1 113.1,61.7 115.1,66.1 120.3,66.8 116.7,70 117.5,74.7 113.1,72.4 108.8,74.7 
									109.6,70 106,66.5 								"/>
							</g>
							<g>
								<polygon class="st16" points="-55,93.4 -52.6,89 -50.6,93.4 -45.8,94.1 -49.4,97.3 -48.7,102 -53,100.1 -57.3,102 
									-56.6,97.3 -59.8,93.7 								"/>
								<polygon class="st16" points="-21.7,93.4 -19.8,89 -17.4,93.4 -12.6,94.1 -16.2,97.3 -15.4,102 -19.8,100.1 -24.1,102 
									-23.3,97.3 -26.9,93.7 								"/>
								<polygon class="st16" points="11.5,93.4 13.5,89 15.8,93.4 20.6,94.1 17,97.3 17.8,102 13.5,100.1 9.1,102 9.9,97.3 
									6.3,93.7 								"/>
								<polygon class="st16" points="44.7,93.4 46.7,89 49,93.4 53.8,94.1 50.3,97.3 51,102 46.7,100.1 42.4,102 43.1,97.3 
									39.5,93.7 								"/>
								<polygon class="st16" points="77.6,93.4 79.9,89 81.9,93.4 87.1,94.1 83.5,97.3 84.2,102 79.9,100.1 75.6,102 76.3,97.3 
									72.8,93.7 								"/>
								<polygon class="st16" points="110.8,93.4 113.1,89 115.1,93.4 120.3,94.1 116.7,97.3 117.5,102 113.1,100.1 108.8,102 
									109.6,97.3 106,93.7 								"/>
							</g>
							<g>
								<polygon class="st16" points="-55,120.7 -52.6,116.3 -50.6,120.7 -45.8,121.4 -49.4,124.6 -48.7,129.3 -53,127.4 
									-57.3,129.3 -56.6,124.6 -59.8,121 								"/>
								<polygon class="st16" points="-21.7,120.7 -19.8,116.3 -17.4,120.7 -12.6,121.4 -16.2,124.6 -15.4,129.3 -19.8,127.4 
									-24.1,129.3 -23.3,124.6 -26.9,121 								"/>
								<polygon class="st16" points="11.5,120.7 13.5,116.3 15.8,120.7 20.6,121.4 17,124.6 17.8,129.3 13.5,127.4 9.1,129.3 
									9.9,124.6 6.3,121 								"/>
								<polygon class="st16" points="44.7,120.7 46.7,116.3 49,120.7 53.8,121.4 50.3,124.6 51,129.3 46.7,127.4 42.4,129.3 
									43.1,124.6 39.5,121 								"/>
								<polygon class="st16" points="77.6,120.7 79.9,116.3 81.9,120.7 87.1,121.4 83.5,124.6 84.2,129.3 79.9,127.4 75.6,129.3 
									76.3,124.6 72.8,121 								"/>
								<polygon class="st16" points="110.8,120.7 113.1,116.3 115.1,120.7 120.3,121.4 116.7,124.6 117.5,129.3 113.1,127.4 
									108.8,129.3 109.6,124.6 106,121 								"/>
							</g>
						</g>
					</g>
				</g>
			</g>
		</g>
	</g>
</g>
<rect class="st27" width="250" height="250"/>
</svg>
