<?xml version="1.0" encoding="utf-8"?>
<!-- Generator: Adobe Illustrator 19.2.0, SVG Export Plug-In . SVG Version: 6.00 Build 0)  -->
<svg version="1.1" id="Layer_1" xmlns="http://www.w3.org/2000/svg" xmlns:xlink="http://www.w3.org/1999/xlink" x="0px" y="0px"
	 viewBox="0 0 250 250" style="enable-background:new 0 0 250 250;" xml:space="preserve">
<style type="text/css">
	.st0{display:none;}
	.st1{display:inline;}
	.st2{fill:none;stroke:#020202;stroke-width:1.5;stroke-miterlimit:10;}
	.st3{fill:none;stroke:#020202;stroke-width:2;stroke-miterlimit:10;}
	.st4{fill:none;stroke:#020202;stroke-miterlimit:10;}
	.st5{fill:none;stroke:#020202;stroke-width:3;stroke-miterlimit:10;}
	.st6{display:inline;fill:none;stroke:#020202;stroke-width:2;stroke-miterlimit:10;}
	.st7{fill:none;stroke:#000000;stroke-width:2;stroke-miterlimit:10;}
	.st8{fill:none;stroke:#000000;stroke-width:4;stroke-miterlimit:10;}
	.st9{font-family:'TimesNewRomanPS-BoldMT';}
	.st10{font-size:42px;}
	.st11{fill:none;stroke:#000000;stroke-width:3;stroke-miterlimit:10;}
	.st12{display:inline;fill:none;stroke:#000000;stroke-width:3;stroke-miterlimit:10;}
	.st13{fill:none;stroke:#000000;stroke-width:3;stroke-linecap:round;stroke-miterlimit:10;}
	.st14{fill:none;stroke:#34B4CF;stroke-width:3;stroke-miterlimit:10;}
	.st15{fill:#34B4CF;}
	.st16{fill:#FFFFFF;}
	.st17{font-family:'Calibri';}
	.st18{font-size:28px;}
	.st19{fill:none;stroke:#34B4CF;stroke-width:2;stroke-miterlimit:10;}
	.st20{display:inline;fill:#34B4CF;}
	.st21{clip-path:url(#SVGID_2_);}
	.st22{fill:#DC1A28;}
	.st23{fill:#F8D834;}
</style>
<g id="Layer_1_1_" class="st0">
	<g class="st1">
		<path class="st2" d="M155.4,153.5c0,1.8-1.5,3.3-3.3,3.3h-34.4c-1.8,0-3.3-1.5-3.3-3.3v-34.4c0-1.8,1.5-3.3,3.3-3.3h34.4
			c1.8,0,3.3,1.5,3.3,3.3V153.5z"/>
		<line class="st3" x1="114.7" y1="130" x2="154.7" y2="130"/>
		<line class="st3" x1="114.7" y1="145" x2="154.7" y2="145"/>
		<circle class="st4" cx="147.4" cy="123" r="1.8"/>
		<circle class="st4" cx="147.4" cy="136.9" r="1.8"/>
		<circle class="st4" cx="147.3" cy="150.3" r="1.8"/>
		<line class="st5" x1="119.7" y1="122.5" x2="135.7" y2="122.5"/>
		<line class="st5" x1="119.7" y1="136.5" x2="135.7" y2="136.5"/>
		<line class="st5" x1="119.7" y1="149.5" x2="135.7" y2="149.5"/>
	</g>
	<polyline class="st6" points="168.7,160 168.7,126 181,126 136,92 90.3,126 101.7,126 101.7,160 	"/>
</g>
<g id="Layer_2" class="st0">
	<g class="st1">
		<path class="st7" d="M161.2,145.5c0,2.2-1.8,4-4,4h-41.9c-2.2,0-4-1.8-4-4v-41.9c0-2.2,1.8-4,4-4h41.9c2.2,0,4,1.8,4,4V145.5z"/>
		<line class="st7" x1="110.7" y1="116" x2="160.7" y2="116"/>
		<line class="st7" x1="110.7" y1="134" x2="160.7" y2="134"/>
		<circle class="st7" cx="151.5" cy="108.3" r="2.3"/>
		<circle class="st7" cx="151.5" cy="125.3" r="2.3"/>
		<circle class="st7" cx="151.5" cy="142.3" r="2.3"/>
		<line class="st8" x1="117.7" y1="108" x2="136.7" y2="108"/>
		<line class="st8" x1="117.7" y1="125" x2="136.7" y2="125"/>
		<line class="st8" x1="117.7" y1="142" x2="136.7" y2="142"/>
	</g>
</g>
<g id="Layer_3" class="st0">
	<g class="st1">
		<path class="st7" d="M144.4,140h14.3v-13H153C153,127,150.4,135,144.4,140z"/>
		<path d="M139.5,121.3l11.6,16.3c0,0,1.9,2.2,4.3,0c3.4-3.1-1.1-5.6-1.1-5.6L139.5,121.3z"/>
		<path class="st7" d="M164.7,141.7c0,2.2-1.8,4.3-4.4,4.3h-48.5c-2.6,0-4.2-2.1-4.2-4.3v-35.3c0-2.2,1.6-3.4,4.2-3.4h48.5
			c2.6,0,4.4,1.1,4.4,3.4V141.7z"/>
		<path class="st7" d="M132,107.7c-8.9,0-16.1,7.2-16.1,16.1s7.2,16.1,16.1,16.1s16.1-7.2,16.1-16.1
			C148.1,114.9,140.9,107.7,132,107.7z M131.9,127.9c-2.4,0-4.3-1.9-4.3-4.3s1.9-4.3,4.3-4.3c2.4,0,4.3,1.9,4.3,4.3
			C136.1,125.9,134.2,127.9,131.9,127.9z"/>
	</g>
</g>
<g id="Layer_4" class="st0">
	<g class="st1">
		<path d="M134.7,119c0,0,0.4-3,3.1-3h9.8c0,0,2.8,0,2.8,3H134.7z"/>
		<circle class="st7" cx="142.5" cy="135.8" r="12.1"/>
		<path d="M142.5,126.5c-5.1,0-9.3,4.2-9.3,9.3s4.2,9.3,9.3,9.3s9.3-4.2,9.3-9.3S147.6,126.5,142.5,126.5z"/>
		<g>
			<path class="st7" d="M119.7,146v2.8c0,1.7,1.2,3.2,3.4,3.2h39.8c2.2,0,2.8-1.4,2.8-3.2v-27.2c0-1.7-0.7-2.6-2.8-2.6h-6.2"/>
			<path class="st7" d="M123.1,119h33.6v-17v-3.4c0-1.7-1.2-1.6-2.9-1.6h-44.3c-1.7,0-2.8-0.1-2.8,1.6v3.4v40.9
				c0,1.7,1.1,3.1,2.8,3.1h10.2v-24.4C119.7,119.9,120.9,119,123.1,119z"/>
		</g>
		<path d="M153.8,97h-43.5c-2,0-3.6,0.3-3.6,2.8v3.2h50v-3.2C156.7,97.3,155.8,97,153.8,97z M147.3,101.6c-0.9,0-1.7-0.8-1.7-1.7
			c0-0.9,0.8-1.7,1.7-1.7s1.7,0.8,1.7,1.7C149,100.8,148.2,101.6,147.3,101.6z M152.3,101.6c-0.9,0-1.7-0.8-1.7-1.7
			c0-0.9,0.8-1.7,1.7-1.7s1.7,0.8,1.7,1.7C154,100.8,153.2,101.6,152.3,101.6z"/>
	</g>
</g>
<g id="Layer_5" class="st0">
	<g class="st1">
		<path class="st7" d="M151,113.7h-3.5l-1.4-3.7c0,0-0.8-1.1-2.4-1.1s-12.5,0-12.5,0s-1.1,0-1.8,1.8l-1.1,3h-7.5c-2.2,0-4,1.8-4,4
			v19c0,2.2,1.8,4,4,4h30c2.2,0,4-1.8,4-4v-19C155,115.5,153.2,113.7,151,113.7z"/>
		<rect x="120.5" y="117.7" width="4.8" height="19.7"/>
		<circle class="st7" cx="139.3" cy="127.5" r="9.2"/>
	</g>
</g>
<g id="Layer_6" class="st0">
	<g class="st1">
		<path class="st7" d="M152.8,130.4c-0.9,0-1.7,0.1-2.5,0.3l-17.9-18c0,0,2.3-4.8-1.6-10c0,0-1.3-2.6-6.2-4.6c0,0-3.7-1.2-7.2-0.1
			c-1.1,1.1-1.1,1.1-1.1,1.1l9,8.1l0.1,4.6c0,0-1,0.9-1.8,1.3l-5.2-0.1l-8.3-8.8l-0.9,1c0,0-1.2,7.8,3.1,11.9c0,0,4.9,5.6,12.8,3
			l17.7,17.7c-0.3,1-0.5,2-0.5,3.1c0,5.8,4.7,10.4,10.4,10.4c5.8,0,10.4-4.7,10.4-10.4C163.2,135,158.5,130.4,152.8,130.4z
			 M154.5,146.2l-5.8-1.4l-1.7-5.7l4.1-4.3l5.8,1.4l1.7,5.7L154.5,146.2z"/>
		<polygon points="134.2,121.8 148.7,107.5 148.7,103.5 159.3,97.7 162.2,100.4 156.2,111 152.1,111.3 137.8,125.8 		"/>
		<path d="M133.6,122.1l-1.5-0.1l-4.1,4h-3.1l-16.4,15.2c0,0-0.7,1-0.5,2.2c0,0,1.7,6.3,7.5,7.6c0,0,1.3,0.2,2.4-0.1l16.5-16.9
			l-0.1-3.1l3.4-3.3v-1.1C137.7,126.5,136.9,125.7,133.6,122.1z"/>
	</g>
</g>
<g id="Layer_7" class="st0">
	<g class="st1">
		<text transform="matrix(1 0 0 1 129.5662 137.9785)" class="st9 st10">i</text>
		<circle class="st11" cx="135.4" cy="123.5" r="24.2"/>
	</g>
</g>
<g id="Layer_8" class="st0">
	<text transform="matrix(1 0 0 1 125.2889 139.9785)" class="st1 st9 st10">?</text>
	<circle class="st12" cx="135.6" cy="125.5" r="24.2"/>
</g>
<g id="Layer_9" class="st0">
	<g class="st1">
		<path class="st13" d="M146.4,113.1c6.1,3.3,10.3,9.7,10.3,17.2c0,10.8-8.7,19.5-19.5,19.5s-19.5-8.7-19.5-19.5
			c0-7.4,4.2-13.9,10.3-17.2"/>
		<path d="M139.7,125.5c0,1.4-1.1,2.5-2.5,2.5l0,0c-1.4,0-2.5-1.1-2.5-2.5v-20c0-1.4,1.1-2.5,2.5-2.5l0,0c1.4,0,2.5,1.1,2.5,2.5
			V125.5z"/>
	</g>
</g>
<g id="Layer_10" class="st0">
	<g class="st1">
		<g>
			<path class="st14" d="M107.8,124.5c-7.4-3.6-10.5-12.4-7-19.8c3.6-7.4,12.4-10.5,19.8-7"/>
			<polyline class="st14" points="100.6,126.1 109.3,125.8 108.4,118.7 			"/>
		</g>
		<rect x="116.7" y="107" class="st15" width="37" height="44"/>
		<polygon class="st15" points="125.7,96 125.7,105 155.7,105 155.7,142 163.7,142 163.7,96 		"/>
		<text transform="matrix(1 0 0 1 127.4105 141.9961)" class="st16 st17 st18">V</text>
	</g>
</g>
<g id="Layer_11" class="st0">
	<g class="st1">
		<path class="st19" d="M152.4,137.6c0,2.2-1.8,4-4,4h-22.3c-2.2,0-4-1.8-4-4v-22.3c0-2.2,1.8-4,4-4h22.3c2.2,0,4,1.8,4,4V137.6z"/>
		<path class="st15" d="M143.9,132.2c0,1.1-0.9,2.1-1.9,2.1h-10.6c-1.1,0-1.9-0.9-1.9-2.1v-11.4c0-1.1,0.9-2.1,1.9-2.1H142
			c1.1,0,1.9,0.9,1.9,2.1V132.2z"/>
		<line class="st19" x1="127.7" y1="141" x2="127.7" y2="148"/>
		<line class="st19" x1="133.7" y1="141" x2="133.7" y2="148"/>
		<line class="st19" x1="140.7" y1="141" x2="140.7" y2="148"/>
		<line class="st19" x1="146.7" y1="141" x2="146.7" y2="148"/>
		<g>
			<line class="st19" x1="151.7" y1="136" x2="158.7" y2="136"/>
			<line class="st19" x1="151.7" y1="130" x2="158.7" y2="130"/>
			<line class="st19" x1="151.7" y1="123" x2="158.7" y2="123"/>
			<line class="st19" x1="151.7" y1="117" x2="158.7" y2="117"/>
		</g>
		<g>
			<line class="st19" x1="114.7" y1="136" x2="121.7" y2="136"/>
			<line class="st19" x1="114.7" y1="130" x2="121.7" y2="130"/>
			<line class="st19" x1="114.7" y1="123" x2="121.7" y2="123"/>
			<line class="st19" x1="114.7" y1="117" x2="121.7" y2="117"/>
		</g>
		<g>
			<line class="st19" x1="127.7" y1="104" x2="127.7" y2="111"/>
			<line class="st19" x1="133.7" y1="104" x2="133.7" y2="111"/>
			<line class="st19" x1="140.7" y1="104" x2="140.7" y2="111"/>
			<line class="st19" x1="146.7" y1="104" x2="146.7" y2="111"/>
		</g>
	</g>
</g>
<g id="Layer_12" class="st0">
	<g class="st1">
		<path class="st19" d="M158.5,109.7l-7.1-8.7c-1-0.9-1.5-1-1.5-1h-18.5c-3.3,0-3.8,4.3-3.8,4.3v30.5c0,0.9,1.1,2.2,1.1,2.2
			c0.9,1.2,3.3,1.1,3.3,1.1h23.4c1.5,0,2.4-1.2,2.4-1.2c0.8-1.1,0.7-2.7,0.7-2.7v-22.6C158.7,110.5,158.5,109.7,158.5,109.7z"/>
		<rect x="133.7" y="121" class="st15" width="20" height="14"/>
		<rect x="135.7" y="105" class="st15" width="3" height="8"/>
		<rect x="139.7" y="105" class="st15" width="3" height="8"/>
		<rect x="144.7" y="105" class="st15" width="3" height="8"/>
	</g>
</g>
<g id="Layer_13" class="st0">
	<g class="st1">
		<path class="st19" d="M141.3,135h10.4v-9h-4.6C147.1,126,145.4,132,141.3,135z"/>
		<path class="st15" d="M137.4,123.8l7.8,8.1c0,0,1.2,1.1,2.4-0.4c1.6-2-1.1-3-1.1-3L137.4,123.8z"/>
		<path class="st19" d="M155.2,136.7c0,1.5-1.4,2.7-3.1,2.7h-32.5c-1.7,0-3.1-1.2-3.1-2.7V113c0-1.5,1.4-2.7,3.1-2.7h32.5
			c1.7,0,3.1,1.2,3.1,2.7V136.7z"/>
		<path class="st19" d="M133,113.9c-6,0-10.8,4.8-10.8,10.8c0,6,4.8,10.8,10.8,10.8c6,0,10.8-4.8,10.8-10.8
			C143.8,118.7,139,113.9,133,113.9z M132.9,127.4c-1.6,0-2.9-1.3-2.9-2.9s1.3-2.9,2.9-2.9c1.6,0,2.9,1.3,2.9,2.9
			C135.8,126.2,134.5,127.4,132.9,127.4z"/>
	</g>
	<polygon class="st20" points="135.7,88.1 128,99 132.7,99 132.7,105 135.7,105 138.7,105 138.7,99 143.4,99 	"/>
	<polygon class="st20" points="135.7,161.9 128,151 132.7,151 132.7,145 135.7,145 138.7,145 138.7,151 143.4,151 	"/>
</g>
<g id="Layer_14">
	<g>
		<g>
			<g>
				<defs>
					<circle id="SVGID_1_" cx="125" cy="125" r="125"/>
				</defs>
				<clipPath id="SVGID_2_">
					<use xlink:href="#SVGID_1_"  style="overflow:visible;"/>
				</clipPath>
				<g class="st21">
					<rect x="-63.9" y="-1.9" width="357.1" height="87.3"/>
					<rect x="-63.9" y="81.3" class="st22" width="357.1" height="87.3"/>
					<rect x="-63.9" y="168.7" class="st23" width="357.1" height="87.3"/>
				</g>
			</g>
		</g>
	</g>
</g>
</svg>
