<?xml version="1.0" encoding="utf-8"?>
<!-- Generator: Adobe Illustrator 20.1.0, SVG Export Plug-In . SVG Version: 6.00 Build 0)  -->
<svg version="1.1" id="Layer_1" xmlns="http://www.w3.org/2000/svg" xmlns:xlink="http://www.w3.org/1999/xlink" x="0px" y="0px"
	 viewBox="0 0 80 80" style="enable-background:new 0 0 80 80;" xml:space="preserve">
<style type="text/css">
	.st0{fill:none;stroke:#34B4CF;stroke-width:2;stroke-miterlimit:10;}
	.st1{fill:#34B4CF;}
</style>
<g id="Layer_2">
</g>
<path class="st0" d="M11.1,2.2h57.1c1,0,1.9,0.8,2,1.8l7,61.3c0.1,1.2-0.8,2.3-2,2.3H4.8c-1.2,0-2.1-1-2-2.2L9.1,4.1
	C9.2,3,10.1,2.2,11.1,2.2z"/>
<path class="st0" d="M77.1,66.3l-0.5,9.3c0,0-0.5,2.2-2.9,2.2H6.3c0,0-2.7,0.2-2.9-3.1l-0.6-8.3"/>
<circle class="st1" cx="66.9" cy="72.7" r="2.4"/>
<circle class="st0" cx="39.9" cy="34.6" r="23.6"/>
<circle class="st1" cx="40" cy="34.6" r="3.5"/>
<path class="st1" d="M16.5,59.3l20-19.3c1-0.8,0.6-2.3-1.4-0.8C34.3,39.7,18.6,52.6,14.3,56c-0.9,0.7-1.1,2.1-0.4,3
	C14.5,59.5,15.2,59.8,16.5,59.3z"/>
<path class="st0" d="M7.6,63.3l1.3-14.6c0,0,7.4,10.9,16.5,15.2L7.6,63.3z"/>
</svg>
