<?xml version="1.0" encoding="utf-8"?>
<!-- Generator: Adobe Illustrator 19.2.1, SVG Export Plug-In . SVG Version: 6.00 Build 0)  -->
<svg version="1.1" id="Layer_2" xmlns="http://www.w3.org/2000/svg" xmlns:xlink="http://www.w3.org/1999/xlink" x="0px" y="0px"
	 viewBox="0 0 80 80" style="enable-background:new 0 0 80 80;" xml:space="preserve">
<style type="text/css">
	.st0{fill:#34B4CF;}
</style>
<circle class="st0" cx="7.6" cy="39.9" r="7.3"/>
<circle class="st0" cx="50.3" cy="27.6" r="4.1"/>
<rect x="14.6" y="38.6" class="st0" width="55.2" height="3"/>
<polygon class="st0" points="68.7,34 68.7,45.8 79.7,39.9 "/>
<path class="st0" d="M32.2,38.9l7.7-7.7c0,0,2.4-2.3,5.6-2h3.4v-2.8L43,26.4c0,0-2.9,0.3-5.2,2.7c-2.3,2.4-9.3,9.7-9.3,9.7H32.2z"/>
<path class="st0" d="M38.6,41.1l7.7,7.7c0,0,2.4,2.3,5.6,2h3.4v2.8l-5.9-0.1c0,0-2.9-0.3-5.2-2.7c-2.3-2.4-9.3-9.7-9.3-9.7H38.6z"/>
<rect x="54.8" y="47.5" class="st0" width="9" height="9"/>
</svg>
