<?xml version="1.0" encoding="utf-8"?>
<!-- Generator: Adobe Illustrator 20.1.0, SVG Export Plug-In . SVG Version: 6.00 Build 0)  -->
<svg version="1.1" id="Layer_1" xmlns="http://www.w3.org/2000/svg" xmlns:xlink="http://www.w3.org/1999/xlink" x="0px" y="0px"
	 viewBox="0 0 80 80" style="enable-background:new 0 0 80 80;" xml:space="preserve">
<style type="text/css">
	.st0{fill:#34B4CF;}
	.st1{fill:none;stroke:#34B4CF;stroke-width:2;stroke-miterlimit:10;}
	.st2{fill:#FFFFFF;}
</style>
<g>
	<g id="Layer_2">
	</g>
	<path class="st0" d="M55.2,60.7h-31c-3,0-5.5-2.5-5.5-5.5v-31c0-3,2.5-5.5,5.5-5.5h31c3,0,5.5,2.5,5.5,5.5v31
		C60.7,58.2,58.2,60.7,55.2,60.7z"/>
	<g id="Layer_2_1_">
	</g>
	<path class="st1" d="M64.4,69H15c-2.6,0-4.7-2.1-4.7-4.7V15c0-2.6,2.1-4.7,4.7-4.7h49.4c2.6,0,4.7,2.1,4.7,4.7v49.4
		C69,67,67,69,64.4,69z"/>
	<g id="g10" transform="matrix(1.3333333,0,0,-1.3333333,0,65.333333)">
		<g id="g12" transform="scale(0.1)">
			<path id="path14" class="st2" d="M291.1,120.8c-54.5-5.1-111.3,2.9-119.2,45.4c-3.9,21,5.7,43.3,18.3,57v7.4
				c-22.9-20.1-35.2-45.3-28.1-75.4c9.1-38.4,57.8-60.1,132.2-52.9c29.4,2.9,67.9,12.3,94.7,27v20.9
				C364.8,135.8,324.7,123.9,291.1,120.8z M434.6,231.2c-12.9,63-135.4,67.1-214.3,19v-5.3c78.9,40.6,190.7,40.3,200.9-17.8
				c3.4-19.3-7.5-39.2-26.7-50.7v-15.1C417.7,169.8,441.5,197.4,434.6,231.2"/>
			<path id="path16" class="st2" d="M384.7,240.4h-14.3v-63.6c0-7.5,3.6-14,14.3-15V240.4"/>
			<path id="path18" class="st2" d="M214.7,217.2h-14.3v-41.5c0-7.5,3.6-14,14.3-15V217.2"/>
			<path id="path20" class="st2" d="M200.4,225h14.3v13.6h-14.3V225z"/>
			<path id="path22" class="st2" d="M300.2,161.3c-11.6,0-16.5,8.1-16.5,15.9v55.2H298v-15.2h10.7v-11.4H298v-27.6
				c0-3.2,1.6-5.1,4.9-5.1h5.8v-11.8L300.2,161.3"/>
			<path id="path24" class="st2" d="M326.3,184.8c0-7.2,4.6-12.5,12.5-12.5c6.3,0,9.4,1.8,13,5.3l8.7-8.3
				c-5.6-5.6-11.5-8.9-21.8-8.9c-13.6,0-26.5,7.4-26.5,29c0,18.4,11.4,28.9,26.2,28.9c15.1,0,23.8-12.2,23.8-28.2V185h-35.9
				 M337.8,206.4c-4.9,0-8.6-2.5-10.1-5.9c-0.9-2.1-1.2-3.6-1.3-6.1h21.8C347.9,200.5,345.1,206.4,337.8,206.4"/>
			<path id="path26" class="st2" d="M253.1,205.7c4.1,0,5.9-2.1,5.9-5.4v-39.1h14.2v39.2c0,8-4.2,16.7-16.7,16.7h-29.3v-55.9h14.2
				v44.5L253.1,205.7"/>
			<path id="path28" class="st2" d="M400.1,229c-3.1,0-5.7,2.6-5.7,5.7c0,3.1,2.5,5.7,5.7,5.7c3.1,0,5.7-2.6,5.7-5.7
				C405.8,231.6,403.2,229,400.1,229z M400.1,239.5c-2.6,0-4.7-2.2-4.7-4.8s2.1-4.8,4.7-4.8c2.6,0,4.8,2.1,4.8,4.8
				C404.9,237.3,402.7,239.5,400.1,239.5z M402.6,231.3h-1c-0.1,0-0.2,0.1-0.2,0.1l-1.4,2.5c0,0.1-0.2,0.1-0.2,0.1s-0.2,0-0.4,0
				c-0.1,0-0.2,0-0.2,0v-2.5c0-0.1-0.1-0.2-0.2-0.2H398c-0.1,0-0.2,0.1-0.2,0.2v6.1c0,0.3,0.1,0.5,0.4,0.5c0.3,0,1.2,0.1,1.8,0.1
				c1.8,0,2.8-0.5,2.8-2.2v-0.1c0-1-0.5-1.6-1.2-1.8l1.4-2.6c0,0,0-0.1,0-0.2C402.8,231.4,402.8,231.3,402.6,231.3z M401.3,236.1
				c0,0.7-0.4,0.9-1.3,0.9c-0.1,0-0.4,0-0.6,0c-0.1,0-0.2,0-0.2,0v-2c0.1,0,0.8,0,0.9,0c0.9,0,1.3,0.3,1.3,0.9L401.3,236.1"/>
		</g>
	</g>
	<line class="st1" x1="21.3" y1="10.3" x2="21.3" y2="1.4"/>
	<line class="st1" x1="30.7" y1="10.3" x2="30.7" y2="1.4"/>
	<line class="st1" x1="40.3" y1="10.3" x2="40.3" y2="1.4"/>
	<line class="st1" x1="49.8" y1="10.3" x2="49.8" y2="1.4"/>
	<line class="st1" x1="59.3" y1="10.3" x2="59.3" y2="1.4"/>
	<line class="st1" x1="10.3" y1="58.7" x2="1.4" y2="58.7"/>
	<line class="st1" x1="10.3" y1="49.3" x2="1.4" y2="49.3"/>
	<line class="st1" x1="10.3" y1="39.7" x2="1.4" y2="39.7"/>
	<line class="st1" x1="10.3" y1="30.2" x2="1.4" y2="30.2"/>
	<line class="st1" x1="10.3" y1="20.7" x2="1.4" y2="20.7"/>
	<line class="st1" x1="78.6" y1="58.7" x2="69.7" y2="58.7"/>
	<line class="st1" x1="78.6" y1="49.3" x2="69.7" y2="49.3"/>
	<line class="st1" x1="78.6" y1="39.7" x2="69.7" y2="39.7"/>
	<line class="st1" x1="78.6" y1="30.2" x2="69.7" y2="30.2"/>
	<line class="st1" x1="78.6" y1="20.7" x2="69.7" y2="20.7"/>
	<line class="st1" x1="21.3" y1="78.6" x2="21.3" y2="69.7"/>
	<line class="st1" x1="30.7" y1="78.6" x2="30.7" y2="69.7"/>
	<line class="st1" x1="40.3" y1="78.6" x2="40.3" y2="69.7"/>
	<line class="st1" x1="49.8" y1="78.6" x2="49.8" y2="69.7"/>
	<line class="st1" x1="59.3" y1="78.6" x2="59.3" y2="69.7"/>
</g>
</svg>
