<?xml version="1.0" encoding="utf-8"?>
<!-- Generator: Adobe Illustrator 19.2.1, SVG Export Plug-In . SVG Version: 6.00 Build 0)  -->
<svg version="1.1" id="Layer_1" xmlns="http://www.w3.org/2000/svg" xmlns:xlink="http://www.w3.org/1999/xlink" x="0px" y="0px"
	 viewBox="0 0 1054.4 378" style="enable-background:new 0 0 1054.4 378;" xml:space="preserve">
<style type="text/css">
	.st0{fill:#4D4D4D;}
	.st1{fill:#34B6D0;}
</style>
<path class="st0" d="M472.1,340.2c21.2-0.3,42.5-0.1,63.8-0.1c2.6-0.4,5,2.1,4.7,4.6c-0.9,4.1-3.8,7.6-7.3,9.7
	c-4.9,2.5-10.5,3-15.3,5.6c-4.4,1.9-7.9,6.2-13,5.9c-4.9,0.5-8.5-3.4-12.5-5.4c-4.2-2.3-8.8-3.3-13.3-4.7c-4.9-1.6-9-5.7-10.3-10.8
	C468.4,342.9,470,340.4,472.1,340.2 M456.3,324.6c11.8-0.6,23.7-0.1,35.5-0.3c19.7,0,39.3,0,59,0c2.3-0.2,4.6,1,5.6,3.1
	c2.1,3.6-1.6,8.3-5.5,7.9c-30.3,0-60.7,0-91,0c-2.5,0.2-5.3-0.5-6.5-2.9C451.4,329.7,453.2,325.5,456.3,324.6 M455.2,310.2
	c2-1,4.4-0.6,6.6-0.7c29.7,0,59.4,0,89.1,0c2.9-0.4,5.8,1.6,6.3,4.4c0.8,3.6-2.7,7-6.2,6.5c-31,0-62,0-93,0
	C452.7,320.6,450.5,312.7,455.2,310.2 M455.3,295.3c1.4-0.8,3-0.6,4.6-0.7c30,0,60,0,90.1,0c2.5-0.2,5.4,0.3,6.6,2.7
	c2.4,3.4-0.7,8.4-4.7,8.2c-31.3,0.1-62.5,0.1-93.8,0C452.6,305.8,450.6,297.8,455.3,295.3 M470.4,112.6c7-3.1,15.1,2.8,15.2,10.2
	c1,7.8-5.3,17-13.8,16c-7-0.7-11-8.5-10-15C462.5,119,465.7,114.3,470.4,112.6 M438.1,38c18.6-14.5,42.2-22.3,65.8-22.1
	c19.3-0.5,38.8,3.8,55.6,13.4c28.3,16.1,50.4,44.2,56.3,76.5c4.3,23.8,2,49.2-8.8,71c-3.8,8.2-9.1,15.5-14.3,22.8
	c-13.3,21.8-24.6,45.1-31.4,69.8c-1.5,4.9-2.2,10-3.7,14.9c-1.5,3.8-6.1,4.5-9.7,4.7c-10.6,0.7-21.3-4-28.1-12.2
	c-5.6-6.2-6.4-15.1-7.3-23.1c-1.1-23.4,0.5-46.8,2.9-70.1c-7,0.3-14.1,0.5-21,1.8c0.8-2.4,2.1-4.8,4.7-5.7
	c5.3-2.7,11.3-3.5,17.2-3.9c2-18.8,4.3-37.6,7.8-56.2c2.4-7.4,12.5-7.4,18.2-4.1c-4.6,19.9-7.1,40.3-9.2,60.6
	c11.5,0.3,23,0.9,34.5-0.1c0.2,1.9,0.8,3.9,0.5,5.9c-0.8,2.3-3.4,3-5.5,3.3c-10.1,1-20.1-1.1-30.2-1.3c-2.3,24.1-4.3,48.5-1.7,72.7
	c0.4,3.9,1.6,8.3,5.2,10.4c4.3,2.1,9.6,1.5,13.6-1.2c5.5-19.3,13.4-37.9,22.9-55.6c4.9-8.9,9.9-17.8,16-26
	c20.8-29.4,22.6-70.3,6.2-102c-9.4-17.4-23.7-32.2-41-42c-15.9-9-34.4-12.9-52.6-11.9c-20.7,0.5-41.2,8-57.2,21.2
	c-16.3,13.1-29.3,30.9-34.6,51.3c-6.6,25.4-4.1,53.7,9.2,76.6c3,5.5,7.2,10.2,10.5,15.6c14.7,24.4,27,50.5,34.2,78.1
	c1.7-1.8,3.5-3.7,4-6.2c2.1-9.5,1.9-19.4,1.9-29.1c0-21-2-42-4.7-62.8c4.9-1.7,10.4-2.9,15.4-0.9c2.7,1,4,3.9,4.1,6.6
	c1.2,24.7,2.3,49.4,1.8,74.1c-0.1,7-0.6,14-1.5,21c-0.6,4.2-1.7,8.9-5.4,11.5c-6,4.4-14,4.5-21,2.7c-2.6-0.7-4.4-3-4.8-5.6
	c-6.3-30.4-19.7-59-36-85.3c-10.7-13.7-18.4-29.8-21.5-46.9c-4.2-23.7-2-48.9,8.6-70.7C411.4,63.1,423.9,49.3,438.1,38"/>
<path class="st1" d="M1029.3,254.5c8.5-2.8,18.1,4.5,17.8,13.4c0.3,8-7.5,14.9-15.4,13.7c-8.3-0.4-14.3-9.8-11.8-17.6
	C1021.2,259.6,1024.8,255.7,1029.3,254.5 M758.4,153.9c7.5,0,14.9,0,22.3,0c10.6,30.5,21.3,60.9,31.9,91.4c2,5.6,3.4,11.3,4.3,17.2
	c1.2-12,6.2-23,10.1-34.3c9-24.8,18-49.5,27-74.3c7.2,0,14.3,0,21.5,0c-16.6,41.7-33.2,83.3-49.8,125c-6.7,0-13.3,0-20,0
	C790,237.2,774.2,195.5,758.4,153.9 M716.1,153.9c6.7,0,13.5,0,20.3,0c0,41.7,0,83.3,0,125c-6.8,0-13.5,0-20.3,0
	C716.1,237.2,716.1,195.6,716.1,153.9 M924.3,174.2c-9.6,7.1-15,18.6-16.6,30.2c22.4,0,44.8,0,67.3,0c0-10.7-2.7-22.2-11-29.6
	C953,165.5,935.7,165.8,924.3,174.2 M904.5,167.6c10-10.8,24.6-17,39.3-16.7c12.6-0.3,25.7,3.4,35,12.1
	c10.2,9.6,15.1,23.5,16.4,37.1c0.8,7.2,0.3,14.4,0.4,21.5c-29.4,0-58.8,0-88.2,0c0.3,10.4,2.6,21.2,9.2,29.5
	c6,7.8,15.4,12.4,25.1,13.3c16.2,2,32.8-3.6,45.4-13.7c0,6.4,0,12.8,0,19.2c-14.8,10.5-33.7,12.9-51.4,11.6
	c-13.6-1.1-26.9-7.4-35.5-18.2c-11.4-14-14.4-32.8-13.8-50.4C887,196.5,892.7,179.5,904.5,167.6 M197.3,171.2
	c-11.4,6.6-17.8,19.4-19.6,32.1c22.4,0,44.8,0,67.3,0c0-9.8-2.2-20.2-9-27.6C226.3,165.4,209.3,164.4,197.3,171.2 M175.1,166
	c10.4-11,25.7-16.9,40.8-16.2c15.2-0.1,30.9,6.6,39.3,19.6c10.3,14.9,10.9,33.7,10.4,51.1c-29.4,0-58.8,0-88.2,0
	c0.3,10.6,2.7,21.7,9.6,30c6,7.5,15.2,11.8,24.6,12.8c16.2,2,32.8-3.6,45.4-13.7c0,6.4,0,12.8,0,19.2
	c-14.8,10.5-33.7,12.9-51.4,11.6c-13.8-1.1-27.3-7.7-35.9-18.7c-11.1-13.9-13.9-32.5-13.3-49.8C157,195.2,162.9,178,175.1,166
	 M62.3,167.5c-7.1,1.1-13.9,4.6-18.9,9.8c-7.4,7.8-11.2,18.3-12.4,28.9c-1.5,12.8-1.1,26.3,4.7,38.1c3.8,7.5,9.9,14,17.8,17.1
	c9.3,3.7,20,3.3,29.1-0.7c11-5.1,18.6-16,21-27.7c1.7-7.3,1-14.7,1.1-22.1c-0.1-5,0.4-10-0.6-15c-1.8-10.5-8.8-20-18.1-25.1
	C78.7,167,70.2,166.2,62.3,167.5 M51.4,151.6c13.1-3,27.7-2.8,39.5,4.4c5.8,3.4,10.3,8.7,13.9,14.3c-0.1-5.8,0-11.6-0.1-17.4
	c6.8,0,13.5,0,20.3,0c0,40,0,80,0,120c-0.5,16.4-4.4,33.7-15.8,46.1c-10.6,11.6-26.6,16.6-41.9,17.5c-16.6,1.2-33.7-1-48.7-8.4
	c0-6.8,0-13.6,0-20.5c12.7,7,26.9,12.1,41.5,11.7c11.1,0,22.9-2.6,31.3-10.3c6.8-6,10.5-14.7,12.2-23.4c2-9.5,1.1-19.3,1.3-28.9
	c-6.2,10.4-15.9,19-27.8,22.1c-15.5,4.1-33.3,2.4-46.1-7.8c-12.7-9.8-19.3-25.6-20.8-41.3c-1.5-16.5,0-33.7,7-48.8
	C23.5,167,36,155.2,51.4,151.6 M302.4,122.2c6.9-2.1,13.6-4.4,20.5-6.5c0,12.4,0,24.8,0,37.2c10.4,0,20.8,0,31.3,0
	c0,5.8,0,11.5,0,17.3c-10.4,0-20.8,0-31.3,0c0,24.6,0,49.2,0,73.9c0.3,6.3,1.6,13.7,7.5,17.2c7.4,4,16.9,3.1,23.7-1.6
	c-0.1,5.8,0,11.6,0,17.5c-8.1,3.8-17.3,4.3-26,3.2c-7.8-1-15.6-5-19.8-11.8c-5.1-7.8-5.8-17.4-5.9-26.5c0-23.9,0-47.9,0-71.8
	c-7.1,0-14.2,0-21.3,0c0-5.8,0-11.5,0-17.3c7.1,0,14.2,0,21.3,0C302.4,142.7,302.4,132.5,302.4,122.2 M722.4,96.6
	c4.2-1,9.1-0.6,12.6,2.3c6.3,4.8,6.4,15.5,0.2,20.3c-5.5,4.8-15.1,3.9-19.3-2.2C710.6,110.2,713.9,98.9,722.4,96.6 M655.1,93.6
	c6.8,0,13.5,0,20.3,0c0,61.8,0,123.5,0,185.3c-6.8,0-13.5,0-20.3,0C655.1,217.1,655.1,155.4,655.1,93.6"/>
</svg>
