<?xml version="1.0" encoding="utf-8"?>
<!-- Generator: Adobe Illustrator 19.2.1, SVG Export Plug-In . SVG Version: 6.00 Build 0)  -->
<svg version="1.1" id="Layer_1" xmlns="http://www.w3.org/2000/svg" xmlns:xlink="http://www.w3.org/1999/xlink" x="0px" y="0px"
	 viewBox="0 0 80 80" style="enable-background:new 0 0 80 80;" xml:space="preserve">
<style type="text/css">
	.st0{fill:none;stroke:#34B4CF;stroke-width:2;stroke-miterlimit:10;}
</style>
<g id="Layer_2">
</g>
<path class="st0" d="M50.3,20.6H29.6c-1.7,0-3.1-1.4-3.1-3.1V8c0-1.7,1.4-3.1,3.1-3.1h20.7c1.7,0,3.1,1.4,3.1,3.1v9.5
	C53.4,19.2,52,20.6,50.3,20.6z"/>
<line class="st0" x1="39.9" y1="20.6" x2="14.4" y2="52.5"/>
<line class="st0" x1="39.9" y1="20.6" x2="39.9" y2="53.6"/>
<line class="st0" x1="39.9" y1="20.6" x2="65.4" y2="52.5"/>
<path class="st0" d="M21,66.5H4.2c-1.7,0-3.1-1.4-3.1-3.1v-7.2c0-1.7,1.4-3.1,3.1-3.1H21c1.7,0,3.1,1.4,3.1,3.1v7.2
	C24.2,65.1,22.7,66.5,21,66.5z"/>
<path class="st0" d="M48.3,66.5H31.5c-1.7,0-3.1-1.4-3.1-3.1v-7.2c0-1.7,1.4-3.1,3.1-3.1h16.8c1.7,0,3.1,1.4,3.1,3.1v7.2
	C51.4,65.1,50,66.5,48.3,66.5z"/>
<path class="st0" d="M75.8,66.5H59c-1.7,0-3.1-1.4-3.1-3.1v-7.2c0-1.7,1.4-3.1,3.1-3.1h16.8c1.7,0,3.1,1.4,3.1,3.1v7.2
	C78.9,65.1,77.5,66.5,75.8,66.5z"/>
</svg>
