<?xml version="1.0" encoding="utf-8"?>
<!-- Generator: Adobe Illustrator 19.2.1, SVG Export Plug-In . SVG Version: 6.00 Build 0)  -->
<svg version="1.1" id="Layer_3" xmlns="http://www.w3.org/2000/svg" xmlns:xlink="http://www.w3.org/1999/xlink" x="0px" y="0px"
	 viewBox="0 0 80 80" style="enable-background:new 0 0 80 80;" xml:space="preserve">
<style type="text/css">
	.st0{fill:none;stroke:#34B4CF;stroke-width:1.0149;stroke-linecap:round;stroke-miterlimit:10;}
	.st1{fill:#34B4CF;}
</style>
<path class="st0" d="M32.5,23c0,0,4.9,6.4,13-0.7"/>
<path class="st1" d="M70.5,63.1c-1.6-2.1-0.5-0.8-1.3-3.8c-0.7-2.6-2.3-3.8-2.6-4c0.1-0.3,0.3-1.2,0.7-4.3
	c0.8-5.6-4.8-15.6-9.4-20.5c-4.6-4.9-4.3-8-4.5-10.4c-0.2-2.3,1.2-11.8-2.6-15.9S40.4-1.3,33.8,2.8c-6.6,4.1-4,18.1-4,18.1
	s0.7,5.6-7,15.1c-7.8,9.5-6.1,18.1-6.1,18.1s-2.4,4.8-5.5,4.9c-3.1,0.1-4.2,3.5-3,5.4c1.2,1.9,0.6,4.3-0.3,5.3
	c-0.8,0.9-0.7,5.4,3.4,5.2c4.6-0.2,9.9,2.3,9.9,2.3c9.8,4.2,11.5-2,11.5-2c6.4-2.5,15.8-0.1,15.8-0.1s0,3.2,4.4,4.2
	c4.4,1,7.9-1.4,9.6-3.6c1.7-2.2,3.1-3.1,5.2-4.1c2.1-1,0.6-0.2,3.6-2.3C74.2,67.4,72.1,65.2,70.5,63.1z M43.5,11.4
	c2.1,0.2,3.8,1.7,3.9,3.8c0.1,2.2,0.4,3-1.1,4.9c0,0-1.3-0.3-1.8-0.9c0,0,1.6-3.4-0.4-4.5c0,0-2.7-1.5-2.5,3.2c0,0-1.9,0.8-2.1-1.7
	C39.3,13.7,41.4,11.2,43.5,11.4z M41.9,19c2.2,1.1,2.3,1.2,3.8,1.7c1.5,0.5,2.3,1.8,1,3.6c-1.3,1.8-3.9,2.1-5.5,3.1
	c-1.5,1-3.7,1.5-6.1-0.5s-2.9-2-3.2-2.6c-0.3-0.7-1-1.8,0.5-2.9c1.6-1.2,2-1.8,3-2.4c1-0.6,1.2-1,2.7-1C38.2,17.8,39.7,17.9,41.9,19
	z M31.4,14.4c0.7-1.8,1.9-3,3.7-2s1.3,4.1,1.3,4.9c0,0.9-1.1,0.8-1.1,0.8s0.1-1.6-0.6-2.5c-0.7-0.9-1.3-0.8-1.9,0
	c-0.6,0.8-0.6,2.5,0.6,3.7c0,0-0.1,1-1.2,0.4C31.1,19.3,30.6,16.3,31.4,14.4z M26.3,76.6c-2.4,0.3-4-0.7-6.4-2.1
	c-2.4-1.3-4.3-0.9-7.2-1.1s-3.3-2.3-2.5-4.3c0.8-2-0.3-1.8-0.1-4.7c0.2-2.9,1.3-3.4,3.4-3.9c2.4-0.6,3.1-2.7,3.2-3
	c0.1-0.3,0.3-2.5,3.3-2c2.9,0.5,3,2.1,3.7,3.7c0.7,1.6,2.1,5,3.8,6.6c2.5,2.4,3.2,4.4,3.2,4.4C32.9,77,26.3,76.6,26.3,76.6z
	 M48.3,69c-3.7,1.7-7.6,4.3-14.5,1.2c0,0-2-1.4-3.8-4.2c0,0,4-1,1.1-5.3c0,0-1-1.5-2.9-2.9c-1.9-1.4-5-2.6-4.4-9.6
	c0.6-7,4.6-10.2,6-14.3c1.4-4.1,2.3-8.3,2.3-8.3s3.2,4.3,7.7,3.2c4.4-1.1,6.7-3.2,8-4c0,0,1.5,6.6,3.7,10.7
	c2.2,4.2,4.5,7.2,5.2,12.6c0,0,8.4-0.2,7.9,6.5c0,0-1.9-3.8-7.7-4.3c0,0-2.2-0.1-2.1,3.1c0,0-3,0.4-3.7,6.5C51,59.9,52,67.3,48.3,69
	z M66,70.4c-3.1,1.6-4.4,3.2-6.5,5.3c-2,2.1-6,1.2-6.5,0.9c-0.5-0.2-3.4-1.9-1.9-6.6s1.4-5,1.7-9.3c0.3-4.4,2.3-5.2,2.3-5.2h0.5
	c0.1,1.9,0.8,3.5,2.6,3.8c1.8,0.3,2.2-0.2,4.1-1.5s2.8-0.7,4-0.1c1.1,0.5,1.1,2.6,1.2,3.1c0.1,0.5,0.3,2.8,1.6,3.3
	c1.3,0.5,1.5,2.1,1.5,2.1C70.6,68.3,69.1,68.8,66,70.4z"/>
</svg>
