<?xml version="1.0" encoding="utf-8"?>
<!-- Generator: Adobe Illustrator 19.2.1, SVG Export Plug-In . SVG Version: 6.00 Build 0)  -->
<svg version="1.1" id="Layer_2" xmlns="http://www.w3.org/2000/svg" xmlns:xlink="http://www.w3.org/1999/xlink" x="0px" y="0px"
	 viewBox="0 0 80 80" style="enable-background:new 0 0 80 80;" xml:space="preserve">
<style type="text/css">
	.st0{fill-rule:evenodd;clip-rule:evenodd;fill:#34B4CF;}
</style>
<path class="st0" d="M39.5,19.7c-0.5-2.8,0.1-5.6,0.9-7.7c0.9-2.1,2.1-3.9,3.5-5.4c2.4-2.7,5.5-5,9.8-5.8c0.3-0.1,0.6-0.1,1-0.2
	c0.4,0,0.8-0.2,1.1-0.1c0.1,0,0.1,0,0.1,0.2C56,1.2,56,1.9,56,2.5c0,5.1-1.9,8.7-4.3,11.4c-1.4,1.6-3.1,3-4.9,4
	C44.7,19,42.6,19.7,39.5,19.7z"/>
<path class="st0" d="M72,26.5c-2.5,1.8-4.7,3.8-6.4,6.5c-1.7,2.6-2.8,6-2.5,10.3c0.3,3.9,1.8,6.8,3.7,9.2c2,2.4,4.4,4.2,7.3,5.6
	c0,0,0,0,0,0c-1.9,5.5-4.6,10.2-8,14.2c-1.7,2-3.5,3.9-5.7,5.4c-1.1,0.7-2.4,1.4-3.9,1.6c-1.7,0.3-3.3-0.1-4.8-0.5
	c-1.5-0.4-2.8-1-4.1-1.5c-1.3-0.5-2.7-1-4.4-1.2c-1.8-0.2-3.6,0-5.1,0.3c-1.5,0.3-2.9,0.8-4.2,1.3c-1.9,0.8-3.9,1.7-6.7,1.6
	c-2.5-0.1-4.4-1.1-6-2.3c-3.2-2.4-5.5-5.6-7.6-9.1c-2.8-4.7-5.1-9.7-6.5-15.7c-0.7-3-1.1-6.3-1.1-10c0-7.3,2.2-12.7,5.5-16.7
	c3.2-3.7,7.6-6.4,13.9-6.9c2.9-0.2,5.8,0.1,7.9,0.8c1.9,0.6,3.5,1.5,5.4,2.1c1.1,0.3,2.2,0.4,3.3,0.2c1.1-0.2,2-0.5,2.9-0.9
	c1.9-0.7,3.6-1.4,5.6-1.8c2-0.4,4.5-0.6,6.9-0.5c6.6,0.5,10.9,3.3,14.2,7.2C71.7,26.2,72,26.4,72,26.5z"/>
</svg>
