<?xml version="1.0" encoding="utf-8"?>
<!-- Generator: Adobe Illustrator 19.2.1, SVG Export Plug-In . SVG Version: 6.00 Build 0)  -->
<svg version="1.1" id="Capa_1" xmlns="http://www.w3.org/2000/svg" xmlns:xlink="http://www.w3.org/1999/xlink" x="0px" y="0px"
	 viewBox="0 0 80 80" style="enable-background:new 0 0 80 80;" xml:space="preserve">
<style type="text/css">
	.st0{enable-background:new    ;}
	.st1{fill:#34B4CF;}
	.st2{fill:none;stroke:#34B4CF;stroke-width:2.073;stroke-miterlimit:10;}
</style>
<g class="st0">
	<path class="st1" d="M39.2,53.7H38c0-2.1,0.1-3.6,0.3-4.7c0.2-1,0.8-2.5,1.8-4.3s1.6-3.3,1.9-4.4c0.3-1.1,0.5-2.5,0.5-4.1
		c0-2.5-0.5-4.3-1.5-5.5c-1-1.2-2.1-1.8-3.5-1.8c-1,0-1.9,0.3-2.6,0.8c-0.5,0.4-0.8,0.8-0.8,1.3c0,0.3,0.2,0.8,0.5,1.4
		c0.8,1.4,1.2,2.7,1.2,3.7c0,0.9-0.3,1.7-0.9,2.3c-0.6,0.6-1.4,0.9-2.3,0.9c-1,0-1.9-0.4-2.6-1.1s-1-1.5-1-2.7c0-2.2,1-4.1,2.9-5.8
		c1.9-1.7,4.6-2.5,8-2.5c3.6,0,6.4,0.9,8.3,2.6c1.9,1.7,2.8,3.8,2.8,6.3c0,1.8-0.5,3.4-1.5,4.9s-2.8,3.2-5.7,5
		c-1.9,1.2-3.1,2.3-3.7,3.3C39.7,50.2,39.3,51.7,39.2,53.7z M38.8,57.8c1.3,0,2.3,0.5,3.2,1.3c0.9,0.9,1.3,1.9,1.3,3.2
		s-0.5,2.3-1.3,3.2c-0.9,0.9-1.9,1.3-3.2,1.3s-2.3-0.5-3.2-1.3c-0.9-0.9-1.3-2-1.3-3.2c0-1.3,0.5-2.3,1.3-3.2
		C36.5,58.2,37.6,57.8,38.8,57.8z"/>
</g>
<path class="st2" d="M35.5,9.1c2-3.5,7-3.5,9,0l16.3,28.3l16.3,28.3c2,3.5-0.5,7.8-4.5,7.8H40H7.3c-4,0-6.5-4.3-4.5-7.8l16.3-28.3
	L35.5,9.1z"/>
</svg>
