<?xml version="1.0" encoding="utf-8"?>
<!-- Generator: Adobe Illustrator 19.2.1, SVG Export Plug-In . SVG Version: 6.00 Build 0)  -->
<svg version="1.1" id="Layer_2" xmlns="http://www.w3.org/2000/svg" xmlns:xlink="http://www.w3.org/1999/xlink" x="0px" y="0px"
	 viewBox="0 0 80 80" style="enable-background:new 0 0 80 80;" xml:space="preserve">
<style type="text/css">
	.st0{fill:#34B4CF;}
</style>
<path class="st0" d="M9.7,35.1c0,0,15.8-8.7,29.3,1.4l7.4-26.4c0,0-9.7-9.6-28.9-1.8L9.7,35.1z"/>
<path class="st0" d="M50.3,12.8c0,0,8.1,10.5,29,2.4l-7.7,26.1c0,0-15.1,8.1-29.1-1.9L50.3,12.8z"/>
<path class="st0" d="M0.6,65.8c0,0,15.8-8.7,29.3,1.4l7.4-26.4c0,0-9.7-9.6-28.9-1.8L0.6,65.8z"/>
<path class="st0" d="M41.5,43.2c0,0,8.1,10.5,29,2.4l-7.7,26.1c0,0-15.1,8.1-29.1-1.9L41.5,43.2z"/>
</svg>
