<?xml version="1.0" encoding="utf-8"?>
<!-- Generator: Adobe Illustrator 19.2.1, SVG Export Plug-In . SVG Version: 6.00 Build 0)  -->
<svg version="1.1" id="Capa_1" xmlns="http://www.w3.org/2000/svg" xmlns:xlink="http://www.w3.org/1999/xlink" x="0px" y="0px"
	 viewBox="0 0 80 80" style="enable-background:new 0 0 80 80;" xml:space="preserve">
<style type="text/css">
	.st0{fill:none;stroke:#FFFFFF;stroke-width:2.0884;stroke-linecap:round;stroke-linejoin:round;stroke-miterlimit:10;}
	.st1{fill:#FFFFFF;stroke:#FFFFFF;stroke-width:2.0884;stroke-linecap:round;stroke-linejoin:round;stroke-miterlimit:10;}
	.st2{fill:#FFFFFF;}
</style>
<circle class="st0" cx="54.4" cy="52.2" r="12.3"/>
<path class="st0" d="M75.6,33.3h-7.2c-0.7-1.6-1.7-4.2-2.8-6.2c-1.3-2.4-3.7-2.3-3.7-2.3s-12,0-16,0c-3.9,0-4.9,3.1-4.9,3.1
	l-1.9,5.4H24.4c-1.7,0-3.2,1.4-3.2,3.2v31.8c0,1.7,1.4,3.2,3.2,3.2h51.2c1.7,0,3.2-1.4,3.2-3.2V36.5C78.7,34.7,77.3,33.3,75.6,33.3z
	"/>
<rect x="27.4" y="40.2" class="st1" width="6.8" height="24.6"/>
<polygon class="st2" points="14.6,54.6 1.2,47.1 15.7,39.5 "/>
<path class="st0" d="M8.1,43.5c-1.8-3-3.1-6.4-3.4-10.2C3.7,20.7,12.9,9.7,25.5,8.6c9-0.8,17.2,3.8,21.5,11"/>
</svg>
