<?xml version="1.0" encoding="utf-8"?>
<!-- Generator: Adobe Illustrator 19.2.1, SVG Export Plug-In . SVG Version: 6.00 Build 0)  -->
<svg version="1.1" id="Capa_1" xmlns="http://www.w3.org/2000/svg" xmlns:xlink="http://www.w3.org/1999/xlink" x="0px" y="0px"
	 viewBox="0 0 80 80" style="enable-background:new 0 0 80 80;" xml:space="preserve">
<style type="text/css">
	.st0{fill:none;stroke:#33B4CE;stroke-width:2;stroke-linecap:round;stroke-linejoin:round;stroke-miterlimit:10;}
</style>
<path class="st0" d="M71.6,72.8H8.4c-2.3,0-4.2-1.9-4.2-4.2V11.4c0-2.3,1.9-4.2,4.2-4.2h63.1c2.3,0,4.2,1.9,4.2,4.2v57.2
	C75.8,70.9,73.9,72.8,71.6,72.8z"/>
<line class="st0" x1="4.2" y1="28" x2="75.8" y2="28"/>
<line class="st0" x1="4.2" y1="52.8" x2="75.8" y2="52.8"/>
<line class="st0" x1="14.5" y1="17.6" x2="47.9" y2="17.6"/>
<line class="st0" x1="14.5" y1="40.4" x2="47.9" y2="40.4"/>
<line class="st0" x1="14.5" y1="62.7" x2="47.9" y2="62.7"/>
<circle class="st0" cx="61.7" cy="17.6" r="3.3"/>
<circle class="st0" cx="61.7" cy="40.4" r="3.3"/>
<circle class="st0" cx="61.7" cy="62.7" r="3.3"/>
</svg>
