<?xml version="1.0" encoding="utf-8"?>
<!-- Generator: Adobe Illustrator 19.2.1, SVG Export Plug-In . SVG Version: 6.00 Build 0)  -->
<svg version="1.1" id="Capa_1" xmlns="http://www.w3.org/2000/svg" xmlns:xlink="http://www.w3.org/1999/xlink" x="0px" y="0px"
	 viewBox="0 0 80 80" style="enable-background:new 0 0 80 80;" xml:space="preserve">
<style type="text/css">
	.st0{fill:none;stroke:#33B4CE;stroke-width:2;stroke-linecap:round;stroke-linejoin:round;stroke-miterlimit:10;}
	.st1{fill:#33B4CE;stroke:#33B4CE;stroke-width:2;stroke-linecap:round;stroke-linejoin:round;stroke-miterlimit:10;}
</style>
<path class="st0" d="M73.7,68.2H6.3c-2.3,0-4.2-1.9-4.2-4.2V16c0-2.3,1.9-4.2,4.2-4.2h67.4c2.3,0,4.2,1.9,4.2,4.2v48
	C77.9,66.3,76,68.2,73.7,68.2z"/>
<circle class="st0" cx="32.8" cy="40.4" r="22"/>
<circle class="st0" cx="32.8" cy="40.4" r="6"/>
<path class="st0" d="M62.8,46.4c0,0-2.7,12.2-9.4,16H69v-16H62.8z"/>
<path class="st1" d="M43.3,44.5l18.4,12.8c0,0,2.1,0.4,2.7-1c0,0,0.8-2-0.8-2.6C61.9,53.2,43.3,44.5,43.3,44.5z"/>
</svg>
