<?xml version="1.0" encoding="utf-8"?>
<!-- Generator: Adobe Illustrator 20.1.0, SVG Export Plug-In . SVG Version: 6.00 Build 0)  -->
<svg version="1.1" id="Layer_1" xmlns="http://www.w3.org/2000/svg" xmlns:xlink="http://www.w3.org/1999/xlink" x="0px" y="0px"
	 viewBox="0 0 80 80" style="enable-background:new 0 0 80 80;" xml:space="preserve">
<style type="text/css">
	.st0{fill:none;stroke:#34B4CF;stroke-width:2;stroke-miterlimit:10;}
	.st1{fill:none;stroke:#34B4CF;stroke-width:1.8553;stroke-miterlimit:10;}
	.st2{fill:#34B4CF;}
</style>
<g id="Layer_2">
</g>
<path class="st0" d="M11.1,2.2h57.1c1,0,1.9,0.8,2,1.8l7,61.3c0.1,1.2-0.8,2.3-2,2.3H4.8c-1.2,0-2.1-1-2-2.2L9.1,4.1
	C9.2,3,10.1,2.2,11.1,2.2z"/>
<path class="st0" d="M77.1,66.3l-0.5,9.3c0,0-0.5,2.2-2.9,2.2H6.3c0,0-2.7,0.2-2.9-3.1l-0.6-8.3"/>
<polyline class="st1" points="28,67.4 28,74.6 60.3,74.7 60.3,67.6 "/>
<line class="st1" x1="32.6" y1="67.4" x2="32.6" y2="74.6"/>
<line class="st1" x1="37.3" y1="67.6" x2="37.3" y2="74.7"/>
<line class="st1" x1="41.9" y1="67.6" x2="41.9" y2="74.7"/>
<line class="st1" x1="46.5" y1="67.4" x2="46.5" y2="74.6"/>
<line class="st1" x1="51.1" y1="67.4" x2="51.1" y2="74.6"/>
<line class="st1" x1="55.7" y1="67.6" x2="55.7" y2="74.7"/>
<circle class="st2" cx="66.9" cy="72.7" r="2.4"/>
</svg>
