<?xml version="1.0" encoding="utf-8"?>
<!-- Generator: Adobe Illustrator 19.2.1, SVG Export Plug-In . SVG Version: 6.00 Build 0)  -->
<svg version="1.1" id="Layer_1" xmlns="http://www.w3.org/2000/svg" xmlns:xlink="http://www.w3.org/1999/xlink" x="0px" y="0px"
	 viewBox="0 0 80 80" style="enable-background:new 0 0 80 80;" xml:space="preserve">
<style type="text/css">
	.st0{fill:none;stroke:#34B4CF;stroke-width:2;stroke-miterlimit:10;}
	.st1{enable-background:new    ;}
	.st2{fill:#34B4CF;}
</style>
<g id="Layer_2">
</g>
<circle class="st0" cx="40" cy="40" r="38.9"/>
<g class="st1">
	<path class="st2" d="M40.7,47.3h-1.3c-0.2-2.3-0.6-5.1-1.4-8.4l-1.6-6.6c-0.9-4-1.4-6.9-1.4-8.6c0-1.6,0.5-2.8,1.4-3.8
		c0.9-0.9,2.1-1.4,3.7-1.4c1.5,0,2.7,0.5,3.6,1.4c1,1,1.4,2.2,1.4,3.7c0,1.6-0.5,4.4-1.5,8.7l-1.6,6.6C41.4,41.2,41,44,40.7,47.3z
		 M40.1,51.7c1.4,0,2.5,0.5,3.5,1.4c1,1,1.4,2.1,1.4,3.5s-0.5,2.5-1.4,3.5c-1,1-2.1,1.4-3.5,1.4c-1.4,0-2.5-0.5-3.5-1.4
		c-1-1-1.4-2.1-1.4-3.5c0-1.4,0.5-2.5,1.4-3.5C37.5,52.2,38.7,51.7,40.1,51.7z"/>
</g>
</svg>
