<?xml version="1.0" encoding="utf-8"?>
<!-- Generator: Adobe Illustrator 19.2.0, SVG Export Plug-In . SVG Version: 6.00 Build 0)  -->
<svg version="1.1" id="Layer_1" xmlns="http://www.w3.org/2000/svg" xmlns:xlink="http://www.w3.org/1999/xlink" x="0px" y="0px"
	 viewBox="0 0 250 250" style="enable-background:new 0 0 250 250;" xml:space="preserve">
<style type="text/css">
	.st0{display:none;fill:#34B4CF;}
	.st1{display:none;fill:none;stroke:#34B4CF;stroke-width:3;stroke-miterlimit:10;}
	.st2{display:none;fill:#34B4CF;enable-background:new    ;}
	.st3{font-family:'ArialMT';}
	.st4{font-size:48px;}
	.st5{display:none;}
	.st6{display:inline;fill:#C95555;}
	.st7{display:inline;fill:none;stroke:#F4DCDC;stroke-width:4;stroke-miterlimit:10;}
	.st8{fill:#DFEAD3;}
	.st9{fill:#7FC14C;}
	.st10{fill:none;}
</style>
<g id="Layer_1_1_">
	<circle class="st0" cx="126.8" cy="123.5" r="54.1"/>
	<circle class="st1" cx="126.8" cy="123.5" r="54.1"/>
	<text transform="matrix(1 0 0 1 114.1882 137.1885)" class="st2 st3 st4">0</text>
</g>
<g id="Layer_2" class="st5">
	<circle class="st6" cx="123.5" cy="114.5" r="54.1"/>
	<line class="st7" x1="104.7" y1="97.7" x2="142.8" y2="135.8"/>
	<line class="st7" x1="142.8" y1="97.7" x2="104.7" y2="135.8"/>
</g>
<g id="Layer_3">
	<g>
		<circle class="st8" cx="125" cy="125" r="123.4"/>
		<path class="st9" d="M125,250C56.1,250,0,193.9,0,125S56.1,0,125,0s125,56.1,125,125S193.9,250,125,250z M125,3.2
			C57.9,3.2,3.2,57.9,3.2,125S57.9,246.8,125,246.8S246.8,192.1,246.8,125S192.1,3.2,125,3.2z"/>
	</g>
	<polygon class="st9" points="106.9,165.5 73.6,126.4 76.9,123.6 107.1,159.3 185.1,79 188.1,82 	"/>
</g>
<rect class="st10" width="250" height="250"/>
</svg>
