<?xml version="1.0" encoding="utf-8"?>
<!-- Generator: Adobe Illustrator 19.2.0, SVG Export Plug-In . SVG Version: 6.00 Build 0)  -->
<svg version="1.1" id="Layer_1" xmlns="http://www.w3.org/2000/svg" xmlns:xlink="http://www.w3.org/1999/xlink" x="0px" y="0px"
	 viewBox="0 0 250 250" style="enable-background:new 0 0 250 250;" xml:space="preserve">
<style type="text/css">
	.st0{display:none;fill:#34B4CF;}
	.st1{display:none;fill:none;stroke:#34B4CF;stroke-width:3;stroke-miterlimit:10;}
	.st2{display:none;fill:#34B4CF;enable-background:new    ;}
	.st3{font-family:'ArialMT';}
	.st4{font-size:48px;}
	.st5{fill:#F4DCDC;}
	.st6{fill:#C95555;}
	.st7{fill:none;}
</style>
<g id="Layer_1_1_">
	<circle class="st0" cx="128.4" cy="125.1" r="54.1"/>
	<circle class="st1" cx="128.4" cy="125.1" r="54.1"/>
	<text transform="matrix(1 0 0 1 115.7883 138.7886)" class="st2 st3 st4">0</text>
</g>
<g id="Layer_2">
	<g>
		<circle class="st5" cx="125" cy="125" r="123.5"/>
		<path class="st6" d="M125,250C56.1,250,0,193.9,0,125S56.1,0,125,0s125,56.1,125,125S193.9,250,125,250z M125,3
			C57.8,3,3,57.8,3,125s54.7,122,122,122s122-54.7,122-122S192.2,3,125,3z"/>
	</g>
	
		<rect x="123.6" y="68.6" transform="matrix(0.7071 -0.7071 0.7071 0.7071 -55.2123 126.9128)" class="st6" width="4.1" height="123"/>
	
		<rect x="64.1" y="128.1" transform="matrix(0.7071 -0.7071 0.7071 0.7071 -55.2627 126.9337)" class="st6" width="123" height="4.1"/>
</g>
<rect class="st7" width="250" height="250"/>
</svg>
